<svg width="119" height="114" viewBox="0 0 119 114" fill="none" xmlns="http://www.w3.org/2000/svg">
<path d="M80.16 45.17C71.7899 45.17 63.27 44.83 55.2999 42.61C47.4799 40.44 40.2999 36.23 33.8999 31.36C29.7099 28.19 25.8999 25.67 20.4599 26.05C15.1369 26.3331 10.0462 28.321 5.93995 31.72C-0.980052 37.78 0.0599475 49 2.82995 56.87C6.98995 68.74 19.6499 77 30.4099 82.36C42.84 88.57 56.5 92.17 70.1899 94.25C82.1899 96.07 97.6099 97.4 108.01 89.56C117.56 82.36 120.18 65.92 117.84 54.82C117.273 51.5379 115.527 48.5758 112.93 46.49C106.22 41.59 96.2099 44.86 88.6699 45.03C85.8699 45.09 83.02 45.15 80.16 45.17Z" fill="#F2F2F2"/>
<path d="M59.68 113.7C79.9543 113.7 96.39 112.675 96.39 111.41C96.39 110.145 79.9543 109.12 59.68 109.12C39.4056 109.12 22.97 110.145 22.97 111.41C22.97 112.675 39.4056 113.7 59.68 113.7Z" fill="#F2F2F2"/>
<path d="M105.49 13.98C106.031 13.98 106.47 13.5412 106.47 13C106.47 12.4587 106.031 12.02 105.49 12.02C104.949 12.02 104.51 12.4587 104.51 13C104.51 13.5412 104.949 13.98 105.49 13.98Z" fill="#CFCFCF"/>
<path d="M40.3001 5.77C40.8413 5.77 41.2801 5.33124 41.2801 4.79C41.2801 4.24876 40.8413 3.81 40.3001 3.81C39.7588 3.81 39.3201 4.24876 39.3201 4.79C39.3201 5.33124 39.7588 5.77 40.3001 5.77Z" fill="#CFCFCF"/>
<path d="M52.1499 99.08C52.6912 99.08 53.1299 98.6412 53.1299 98.1C53.1299 97.5588 52.6912 97.12 52.1499 97.12C51.6087 97.12 51.1699 97.5588 51.1699 98.1C51.1699 98.6412 51.6087 99.08 52.1499 99.08Z" fill="#CFCFCF"/>
<path d="M78.3101 1.10999V5.40998" stroke="#BABABA" stroke-linecap="round" stroke-linejoin="round"/>
<path d="M76.1599 3.26001H80.4599" stroke="#BABABA" stroke-linecap="round" stroke-linejoin="round"/>
<path d="M8.25 19.21V23.51" stroke="#BABABA" stroke-linecap="round" stroke-linejoin="round"/>
<path d="M6.09009 21.36H10.4001" stroke="#BABABA" stroke-linecap="round" stroke-linejoin="round"/>
<path d="M11.49 79.12V83.43" stroke="#BABABA" stroke-linecap="round" stroke-linejoin="round"/>
<path d="M9.33008 81.27H13.6401" stroke="#BABABA" stroke-linecap="round" stroke-linejoin="round"/>
<path d="M100.34 35.03V39.33" stroke="#BABABA" stroke-linecap="round" stroke-linejoin="round"/>
<path d="M98.1899 37.18H102.49" stroke="#BABABA" stroke-linecap="round" stroke-linejoin="round"/>
<path d="M70.3694 9.94251L20.1764 16.5335C16.9232 16.9607 14.6322 19.9443 15.0594 23.1975L22.7099 81.459C23.1371 84.7122 26.1207 87.0032 29.3739 86.576L79.5669 79.985C82.8201 79.5578 85.1111 76.5742 84.6839 73.321L77.0334 15.0595C76.6062 11.8063 73.6226 9.51532 70.3694 9.94251Z" fill="#D2D2D2"/>
<path d="M84.9901 18.49H34.2901C31.004 18.49 28.3401 21.1539 28.3401 24.44V83.29C28.3401 86.5761 31.004 89.24 34.2901 89.24H84.9901C88.2762 89.24 90.9401 86.5761 90.9401 83.29V24.44C90.9401 21.1539 88.2762 18.49 84.9901 18.49Z" fill="white" stroke="#BABABA" stroke-linecap="round" stroke-linejoin="round"/>
<path d="M35.9099 65.05L46.0499 48.52C46.1497 48.2785 46.3189 48.0721 46.536 47.9268C46.7532 47.7815 47.0086 47.704 47.2699 47.704C47.5312 47.704 47.7866 47.7815 48.0038 47.9268C48.221 48.0721 48.3902 48.2785 48.4899 48.52L54.2399 57.89C54.3376 58.1323 54.5054 58.3398 54.7219 58.486C54.9384 58.6321 55.1937 58.7102 55.4549 58.7102C55.7161 58.7102 55.9714 58.6321 56.1879 58.486C56.4044 58.3398 56.5722 58.1323 56.6699 57.89L66.5099 41.89C66.6076 41.6477 66.7754 41.4402 66.9919 41.294C67.2084 41.1479 67.4637 41.0698 67.7249 41.0698C67.9861 41.0698 68.2414 41.1479 68.4579 41.294C68.6744 41.4402 68.8423 41.6477 68.9399 41.89L83.3799 65.42L35.9099 65.05Z" fill="white" stroke="#BABABA" stroke-linecap="round" stroke-linejoin="round"/>
<path d="M56.1299 46.3C57.8917 46.3 59.3199 44.8718 59.3199 43.11C59.3199 41.3482 57.8917 39.92 56.1299 39.92C54.3681 39.92 52.9399 41.3482 52.9399 43.11C52.9399 44.8718 54.3681 46.3 56.1299 46.3Z" fill="white" stroke="#BABABA" stroke-linecap="round" stroke-linejoin="round"/>
</svg>
