<svg width="119" height="110" viewBox="0 0 119 110" fill="none" xmlns="http://www.w3.org/2000/svg">
<path d="M102.94 27.1602V31.4702" stroke="#BABABA" stroke-linecap="round" stroke-linejoin="round"/>
<path d="M100.79 29.3105H105.09" stroke="#BABABA" stroke-linecap="round" stroke-linejoin="round"/>
<path d="M14.78 10.5303V14.8303" stroke="#BABABA" stroke-linecap="round" stroke-linejoin="round"/>
<path d="M12.6201 12.6797H16.9301" stroke="#BABABA" stroke-linecap="round" stroke-linejoin="round"/>
<path d="M48.24 2.46C48.7812 2.46 49.22 2.02124 49.22 1.48C49.22 0.93876 48.7812 0.5 48.24 0.5C47.6988 0.5 47.26 0.93876 47.26 1.48C47.26 2.02124 47.6988 2.46 48.24 2.46Z" fill="#CFCFCF"/>
<path d="M79.66 41.4197C71.29 41.4197 62.7699 41.0797 54.7999 38.8597C46.9799 36.6897 39.7999 32.4797 33.3999 27.6097C29.2099 24.4397 25.3999 21.9197 19.9599 22.2997C14.6335 22.5913 9.54234 24.5899 5.43995 27.9997C-1.48005 33.9997 -0.440053 45.2297 2.32995 53.1197C6.48995 64.9997 19.1499 73.2297 29.9099 78.6097C42.3399 84.8197 55.9999 88.4197 69.6899 90.4997C81.6899 92.3197 97.1099 93.6497 107.51 85.8097C117.06 78.6097 119.68 62.1697 117.34 51.0697C116.773 47.7876 115.027 44.8255 112.43 42.7397C105.72 37.8397 95.7099 41.1097 88.1699 41.2797C85.3699 41.3397 82.52 41.4097 79.66 41.4197Z" fill="#F2F2F2"/>
<path d="M59.18 109.95C79.4543 109.95 95.89 108.925 95.89 107.66C95.89 106.395 79.4543 105.37 59.18 105.37C38.9056 105.37 22.47 106.395 22.47 107.66C22.47 108.925 38.9056 109.95 59.18 109.95Z" fill="#F2F2F2"/>
<path d="M74.7727 3.8211L25.8974 10.4293C24.3322 10.6409 23.2348 12.0814 23.4464 13.6467L32.9246 83.7489C33.1363 85.3142 34.5767 86.4115 36.142 86.1999L85.0173 79.5917C86.5826 79.38 87.68 77.9396 87.4683 76.3743L77.9901 6.27211C77.7785 4.70682 76.338 3.60947 74.7727 3.8211Z" fill="#D2D2D2"/>
<path d="M91.0101 14.1094H41.6901C40.1105 14.1094 38.8301 15.3898 38.8301 16.9694V87.7094C38.8301 89.2889 40.1105 90.5694 41.6901 90.5694H91.0101C92.5896 90.5694 93.8701 89.2889 93.8701 87.7094V16.9694C93.8701 15.3898 92.5896 14.1094 91.0101 14.1094Z" fill="white" stroke="#BABABA" stroke-linecap="round" stroke-linejoin="round"/>
<path d="M78.1999 69.0303H54.4899C53.6007 69.0303 52.8799 69.7511 52.8799 70.6403V70.6503C52.8799 71.5395 53.6007 72.2603 54.4899 72.2603H78.1999C79.0891 72.2603 79.8099 71.5395 79.8099 70.6503V70.6403C79.8099 69.7511 79.0891 69.0303 78.1999 69.0303Z" fill="#D2D2D2"/>
<path d="M77.3501 82.2305H54.6001C54.3295 82.2305 54.1101 82.4498 54.1101 82.7205V82.8705C54.1101 83.1411 54.3295 83.3605 54.6001 83.3605H77.3501C77.6207 83.3605 77.8401 83.1411 77.8401 82.8705V82.7205C77.8401 82.4498 77.6207 82.2305 77.3501 82.2305Z" fill="#D2D2D2"/>
<path d="M83.15 76.9395H49.64C49.281 76.9395 48.99 77.2305 48.99 77.5894C48.99 77.9484 49.281 78.2394 49.64 78.2394H83.15C83.509 78.2394 83.8 77.9484 83.8 77.5894C83.8 77.2305 83.509 76.9395 83.15 76.9395Z" fill="#D2D2D2"/>
<path d="M89.2801 16.4395H43.4201C42.2824 16.4395 41.3601 17.3617 41.3601 18.4995V58.2695C41.3601 59.4072 42.2824 60.3295 43.4201 60.3295H89.2801C90.4178 60.3295 91.3401 59.4072 91.3401 58.2695V18.4995C91.3401 17.3617 90.4178 16.4395 89.2801 16.4395Z" fill="white" stroke="#BABABA" stroke-linecap="round" stroke-linejoin="round"/>
<path d="M72.47 48.0004C72.7967 47.9926 73.1132 47.8856 73.3776 47.6936C73.642 47.5016 73.8418 47.2338 73.9503 46.9255C74.0588 46.6173 74.071 46.2834 73.9852 45.9681C73.8994 45.6528 73.7197 45.3711 73.47 45.1604C71.3841 43.4327 68.7546 42.4981 66.0463 42.5219C63.3379 42.5457 60.7252 43.5263 58.67 45.2904C58.4223 45.5003 58.2444 45.7807 58.1599 46.0942C58.0754 46.4077 58.0882 46.7395 58.1967 47.0455C58.3053 47.3515 58.5043 47.6173 58.7675 47.8075C59.0306 47.9977 59.3454 48.1033 59.67 48.1104L72.47 48.0004Z" fill="white" stroke="#BABABA" stroke-linecap="round" stroke-linejoin="round"/>
<path d="M80.6401 37.9898L74.8101 34.6298L80.6401 31.2598" stroke="#BABABA" stroke-width="0.71" stroke-linecap="round" stroke-linejoin="round"/>
<path d="M51.5801 37.9898L57.4101 34.6298L51.5801 31.2598" stroke="#BABABA" stroke-width="0.71" stroke-linecap="round" stroke-linejoin="round"/>
<path d="M19.6101 59.3203V63.6303" stroke="#BABABA" stroke-linecap="round" stroke-linejoin="round"/>
<path d="M17.46 61.4697H21.77" stroke="#BABABA" stroke-linecap="round" stroke-linejoin="round"/>
<path d="M101.12 62.3702C101.661 62.3702 102.1 61.9314 102.1 61.3902C102.1 60.8489 101.661 60.4102 101.12 60.4102C100.579 60.4102 100.14 60.8489 100.14 61.3902C100.14 61.9314 100.579 62.3702 101.12 62.3702Z" fill="#CFCFCF"/>
</svg>
