<svg width="119" height="100" viewBox="0 0 119 100" fill="none" xmlns="http://www.w3.org/2000/svg">
<path d="M79.5545 31.3699C71.1645 31.4199 62.6445 31.0299 54.6645 28.8099C46.6845 26.5899 39.6645 22.4199 33.2345 17.5499C29.0345 14.3699 25.2345 11.8499 19.7745 12.2299C14.4455 12.513 9.34835 14.5006 5.2345 17.8999C-1.6955 23.9699 -0.645498 35.1899 2.1245 43.1099C6.2845 54.9699 18.9645 63.2299 29.7345 68.5999C42.1845 74.8199 55.8645 78.4299 69.5645 80.5099C81.6245 82.3399 97.0145 83.6599 107.424 75.8199C116.994 68.6099 119.615 52.1499 117.275 41.0299C116.706 37.746 114.956 34.7834 112.355 32.6999C105.635 27.7799 95.6145 31.0699 88.0645 31.2299C85.2645 31.2899 82.4145 31.3599 79.5545 31.3699Z" fill="#F2F2F2"/>
<path d="M30.4846 74.1499V78.4599" stroke="#CFCFCF" stroke-linecap="round" stroke-linejoin="round"/>
<path d="M28.3345 76.3101H32.6445" stroke="#CFCFCF" stroke-linecap="round" stroke-linejoin="round"/>
<path d="M102.504 21.1196V25.4296" stroke="#CFCFCF" stroke-linecap="round" stroke-linejoin="round"/>
<path d="M100.354 23.2798H104.664" stroke="#CFCFCF" stroke-linecap="round" stroke-linejoin="round"/>
<path d="M56.7244 1.96C57.2656 1.96 57.7044 1.52124 57.7044 0.980001C57.7044 0.438762 57.2656 0 56.7244 0C56.1831 0 55.7444 0.438762 55.7444 0.980001C55.7444 1.52124 56.1831 1.96 56.7244 1.96Z" fill="#CFCFCF"/>
<path d="M59.4446 99.9897C79.7466 99.9897 96.2046 98.9644 96.2046 97.6997C96.2046 96.4349 79.7466 95.4097 59.4446 95.4097C39.1426 95.4097 22.6846 96.4349 22.6846 97.6997C22.6846 98.9644 39.1426 99.9897 59.4446 99.9897Z" fill="#F2F2F2"/>
<path d="M28.2744 52.4301C28.2744 42.8611 32.0757 33.684 38.842 26.9177C45.6083 20.1514 54.7854 16.3501 64.3544 16.3501C73.9234 16.3501 83.1005 20.1514 89.8668 26.9177C96.6331 33.684 100.434 42.8611 100.434 52.4301" stroke="#BABABA" stroke-linecap="round" stroke-linejoin="round"/>
<path d="M96.4644 66.8398H89.3444V38.3898H96.4644C98.2096 38.3898 99.8832 39.0831 101.117 40.3171C102.351 41.5511 103.044 43.2247 103.044 44.9698V60.2598C103.044 62.005 102.351 63.6786 101.117 64.9126C99.8832 66.1466 98.2096 66.8398 96.4644 66.8398Z" fill="#D2D2D2"/>
<path d="M31.9946 38.3896H39.1146V66.8397H31.9946C30.2494 66.8397 28.5758 66.1464 27.3418 64.9124C26.1078 63.6784 25.4146 62.0048 25.4146 60.2597V44.9697C25.4146 43.2245 26.1078 41.5509 27.3418 40.3169C28.5758 39.0829 30.2494 38.3896 31.9946 38.3896Z" fill="#D2D2D2"/>
<path d="M64.3546 82.5998C81.017 82.5998 94.5246 69.0922 94.5246 52.4298C94.5246 35.7673 81.017 22.2598 64.3546 22.2598C47.6921 22.2598 34.1846 35.7673 34.1846 52.4298C34.1846 69.0922 47.6921 82.5998 64.3546 82.5998Z" fill="white" stroke="#BABABA" stroke-linecap="round" stroke-linejoin="round"/>
<path d="M54.9246 64.4698C55.3924 62.3166 56.583 60.3884 58.2985 59.0055C60.014 57.6227 62.1511 56.8687 64.3546 56.8687C66.558 56.8687 68.6951 57.6227 70.4106 59.0055C72.1261 60.3884 73.3167 62.3166 73.7846 64.4698" stroke="#BABABA" stroke-linecap="round" stroke-linejoin="round"/>
<path d="M75.0045 53.22C75.7446 53.22 76.3446 52.6201 76.3446 51.88C76.3446 51.14 75.7446 50.54 75.0045 50.54C74.2645 50.54 73.6646 51.14 73.6646 51.88C73.6646 52.6201 74.2645 53.22 75.0045 53.22Z" fill="#BABABA"/>
<path d="M53.7045 53.22C54.4446 53.22 55.0445 52.6201 55.0445 51.88C55.0445 51.14 54.4446 50.54 53.7045 50.54C52.9644 50.54 52.3645 51.14 52.3645 51.88C52.3645 52.6201 52.9644 53.22 53.7045 53.22Z" fill="#BABABA"/>
<path d="M35.1544 21.6298L37.2644 7.2898C37.1613 7.28047 37.0576 7.28047 36.9544 7.2898L26.7044 8.7798C25.1644 9.0098 23.6244 9.2398 22.0744 9.4498C21.9879 9.44574 21.9014 9.45929 21.8203 9.48963C21.7391 9.51997 21.665 9.56647 21.6024 9.62631C21.5397 9.68615 21.4899 9.75808 21.4558 9.83776C21.4218 9.91743 21.4043 10.0032 21.4044 10.0898C20.6044 15.6498 19.7344 21.1898 18.9844 26.7498C18.9249 27.5815 18.5832 28.3679 18.0158 28.9789C17.4484 29.5899 16.6894 29.9889 15.8644 30.1098C14.8813 30.362 13.8506 30.3632 12.8669 30.1133C11.8832 29.8635 10.978 29.3706 10.2344 28.6798C9.74638 28.2929 9.39483 27.7601 9.23111 27.1592C9.0674 26.5583 9.10009 25.9208 9.32443 25.3398C9.5237 24.8492 9.8358 24.4124 10.2354 24.0649C10.635 23.7174 11.1109 23.469 11.6244 23.3398C12.5118 23.0405 13.4551 22.9444 14.3845 23.0586C15.314 23.1729 16.206 23.4945 16.9944 23.9998L17.2744 24.1698C17.2744 24.1698 17.2744 24.1698 17.4144 24.1698C17.4144 24.0098 17.5044 23.8498 17.5244 23.6798C18.4844 17.1931 19.4378 10.6998 20.3844 4.1998C20.4544 3.7398 20.5944 3.5498 21.0744 3.4798C24.9444 2.94981 28.8144 2.3798 32.6744 1.8198L39.8644 0.799805H40.2044C40.215 0.949618 40.215 1.09999 40.2044 1.2498C39.0044 9.08314 37.8244 16.9198 36.6644 24.7598C36.5758 25.2675 36.3659 25.7463 36.0525 26.1555C35.7391 26.5646 35.3315 26.892 34.8644 27.1098C33.7775 27.6189 32.568 27.8075 31.3777 27.6534C30.1875 27.4993 29.0658 27.0089 28.1444 26.2398C26.1444 24.3698 26.6044 21.7898 29.2044 20.8398C30.1064 20.4947 31.0768 20.3665 32.0374 20.4655C32.998 20.5645 33.9219 20.888 34.7344 21.4098C34.8241 21.4723 34.9176 21.5291 35.0144 21.5798C35.0144 21.5798 35.0844 21.6198 35.1544 21.6298Z" fill="#D2D2D2"/>
</svg>
