<svg width="45" height="46" viewBox="0 0 45 46" fill="none" xmlns="http://www.w3.org/2000/svg">
<mask id="path-1-inside-1_1085_8061" fill="white">
<path fill-rule="evenodd" clip-rule="evenodd" d="M6 5.55563C6 7.37062 6.83927 8.98234 8.1373 9.99618C7.44867 11.7074 7.06836 13.5853 7.06836 15.5554C7.06836 23.5329 13.3045 30 20.9971 30C28.6898 30 34.9259 23.5329 34.9259 15.5554C34.9259 13.5865 34.5461 11.7097 33.8582 9.99931C35.1586 8.98566 35.9996 7.3725 35.9996 5.55563C35.9996 2.48734 33.6011 0 30.6423 0C28.8909 0 27.3357 0.871634 26.3582 2.21944C24.708 1.50519 22.897 1.11073 20.9971 1.11073C19.0988 1.11073 17.2892 1.50455 15.6401 2.2177C14.6625 0.870885 13.1079 0 11.3572 0C8.39851 0 6 2.48734 6 5.55563Z"/>
</mask>
<path fill-rule="evenodd" clip-rule="evenodd" d="M6 5.55563C6 7.37062 6.83927 8.98234 8.1373 9.99618C7.44867 11.7074 7.06836 13.5853 7.06836 15.5554C7.06836 23.5329 13.3045 30 20.9971 30C28.6898 30 34.9259 23.5329 34.9259 15.5554C34.9259 13.5865 34.5461 11.7097 33.8582 9.99931C35.1586 8.98566 35.9996 7.3725 35.9996 5.55563C35.9996 2.48734 33.6011 0 30.6423 0C28.8909 0 27.3357 0.871634 26.3582 2.21944C24.708 1.50519 22.897 1.11073 20.9971 1.11073C19.0988 1.11073 17.2892 1.50455 15.6401 2.2177C14.6625 0.870885 13.1079 0 11.3572 0C8.39851 0 6 2.48734 6 5.55563Z" fill="#ACC0E2"/>
<path d="M8.1373 9.99618L9.065 10.3695L9.34596 9.67134L8.75285 9.20808L8.1373 9.99618ZM33.8582 9.99931L33.2434 9.21063L32.6495 9.67367L32.9305 10.3724L33.8582 9.99931ZM26.3582 2.21944L25.961 3.13716L26.6969 3.45569L27.1677 2.80654L26.3582 2.21944ZM15.6401 2.2177L14.8308 2.80511L15.3015 3.45361L16.037 3.13555L15.6401 2.2177ZM8.75285 9.20808C7.69368 8.38081 7 7.05799 7 5.55563H5C5 7.68326 5.98486 9.58387 7.52175 10.7843L8.75285 9.20808ZM8.06836 15.5554C8.06836 13.7148 8.42353 11.9635 9.065 10.3695L7.2096 9.62285C6.4738 11.4512 6.06836 13.4558 6.06836 15.5554H8.06836ZM20.9971 29C13.8907 29 8.06836 23.0152 8.06836 15.5554H6.06836C6.06836 24.0506 12.7182 31 20.9971 31V29ZM33.9259 15.5554C33.9259 23.0152 28.1035 29 20.9971 29V31C29.276 31 35.9259 24.0506 35.9259 15.5554H33.9259ZM32.9305 10.3724C33.5712 11.9656 33.9259 13.7159 33.9259 15.5554H35.9259C35.9259 13.4571 35.521 11.4537 34.786 9.62619L32.9305 10.3724ZM34.9996 5.55563C34.9996 7.05954 34.3045 8.38353 33.2434 9.21063L34.4731 10.788C36.0127 9.58779 36.9996 7.68545 36.9996 5.55563H34.9996ZM30.6423 1C33.0148 1 34.9996 3.00504 34.9996 5.55563H36.9996C36.9996 1.96964 34.1873 -1 30.6423 -1V1ZM27.1677 2.80654C27.9707 1.69942 29.2337 1 30.6423 1V-1C28.5481 -1 26.7008 0.0438483 25.5487 1.63233L27.1677 2.80654ZM20.9971 2.11073C22.7572 2.11073 24.4333 2.4759 25.961 3.13716L26.7554 1.30171C24.9828 0.534467 23.0368 0.110728 20.9971 0.110728V2.11073ZM16.037 3.13555C17.5638 2.47531 19.2385 2.11073 20.9971 2.11073V0.110728C18.9591 0.110728 17.0146 0.53378 15.2432 1.29985L16.037 3.13555ZM11.3572 1C12.7653 1 14.0278 1.69882 14.8308 2.80511L16.4494 1.63028C15.2972 0.0429507 13.4506 -1 11.3572 -1V1ZM7 5.55563C7 3.00504 8.98476 1 11.3572 1V-1C7.81226 -1 5 1.96964 5 5.55563H7Z" fill="#ACC0E2" mask="url(#path-1-inside-1_1085_8061)"/>
<rect x="16.1426" y="11.6113" width="1.14289" height="3.4445" rx="0.571445" fill="white" stroke="white"/>
<rect x="25.7852" y="11.6113" width="1.14289" height="3.4445" rx="0.571445" fill="white" stroke="white"/>
<path d="M16.7129 18.8896V18.8896C18.7495 22.3217 23.6244 22.5721 26.0019 19.3668L26.3559 18.8896" stroke="white"/>
<path d="M3.75 40.1875V39.25H4.6875V34.5625H1.875V33.625H6.5625V39.25H5.625V40.1875H10.3125V39.25H11.25V34.5625H8.4375V33.625H13.125V39.25H12.1875V40.1875H14.0625V41.125H8.4375V44.875H6.5625V41.125H0.9375V40.1875H3.75ZM27.96 44.875H26.085V32.6875H27.96V44.875ZM22.335 43H21.3975V43.9375H16.71V43H15.7725V33.625H22.335V43ZM20.46 34.5625H17.6475V43H20.46V34.5625ZM42.795 44.875H40.92V32.6875H42.795V44.875ZM33.42 42.0625H34.3575V34.5625H30.6075V33.625H36.2325V42.0625H35.295V43H34.3575V43.9375H31.545V43H33.42V42.0625Z" fill="#ACC0E2"/>
</svg>
