<svg width="40" height="40" viewBox="0 0 40 40" fill="none" xmlns="http://www.w3.org/2000/svg">
<path fill-rule="evenodd" clip-rule="evenodd" d="M18.3327 30.0003C24.776 30.0003 29.9993 24.777 29.9993 18.3337C29.9993 11.8903 24.776 6.66699 18.3327 6.66699C11.8894 6.66699 6.66602 11.8903 6.66602 18.3337C6.66602 24.777 11.8894 30.0003 18.3327 30.0003ZM18.3327 10.667C17.3259 10.667 16.3289 10.8653 15.3988 11.2506C14.4686 11.6359 13.6234 12.2006 12.9115 12.9125C12.1996 13.6244 11.6349 14.4696 11.2496 15.3998C10.8643 16.3299 10.666 17.3269 10.666 18.3337C10.666 18.8859 11.1137 19.3337 11.666 19.3337C12.2183 19.3337 12.666 18.8859 12.666 18.3337C12.666 17.5895 12.8126 16.8526 13.0974 16.1651C13.3821 15.4776 13.7995 14.8529 14.3257 14.3267C14.8519 13.8005 15.4766 13.3831 16.1641 13.0983C16.8517 12.8136 17.5885 12.667 18.3327 12.667C18.885 12.667 19.3327 12.2193 19.3327 11.667C19.3327 11.1147 18.885 10.667 18.3327 10.667Z" fill="#ACC0E2"/>
<path d="M33.3333 33.3333L30 30" stroke="#ACC0E2" stroke-width="2" stroke-linecap="round"/>
</svg>
