<svg width="35" height="35" viewBox="0 0 35 35" fill="none" xmlns="http://www.w3.org/2000/svg">
<g id="Save_fill">
<path id="Subtract" fill-rule="evenodd" clip-rule="evenodd" d="M4.375 10.375C4.375 7.54657 4.375 6.13236 5.25368 5.25368C6.13236 4.375 7.54657 4.375 10.375 4.375H23.1348C23.9523 4.375 24.3611 4.375 24.7286 4.52724C25.0961 4.67948 25.3852 4.96851 25.9632 5.54657L29.4534 9.03676C30.0315 9.61482 30.3205 9.90385 30.4728 10.2714C30.625 10.6389 30.625 11.0477 30.625 11.8652V24.625C30.625 27.4534 30.625 28.8676 29.7463 29.7463C28.8676 30.625 27.4534 30.625 24.625 30.625H24.3333V24.875L24.3333 24.8134C24.3334 24.1593 24.3335 23.5715 24.2695 23.0958C24.1997 22.5765 24.0375 22.0437 23.6011 21.6072C23.1647 21.1708 22.6318 21.0087 22.1125 20.9388C21.6368 20.8749 21.0491 20.8749 20.3949 20.875L20.3333 20.875H13.2083L13.1467 20.875C12.4926 20.8749 11.9049 20.8749 11.4292 20.9388C10.9098 21.0087 10.377 21.1708 9.94057 21.6072C9.50413 22.0437 9.34199 22.5765 9.27217 23.0958C9.20821 23.5716 9.20827 24.1593 9.20833 24.8134L9.20833 24.875V30.6221C7.13936 30.6057 6.0022 30.4948 5.25368 29.7463C4.375 28.8676 4.375 27.4534 4.375 24.625V10.375ZM22.3333 24.875V30.625H11.2083V24.875C11.2083 24.1396 11.2105 23.6887 11.2543 23.3623C11.2929 23.0755 11.3478 23.0276 11.3543 23.0219L11.3548 23.0214L11.3553 23.0209C11.3609 23.0144 11.4088 22.9596 11.6957 22.921C12.022 22.8771 12.473 22.875 13.2083 22.875H20.3333C21.0687 22.875 21.5196 22.8771 21.846 22.921C22.1328 22.9596 22.1807 23.0144 22.1864 23.0209L22.1869 23.0214L22.1874 23.0219C22.1939 23.0276 22.2488 23.0755 22.2873 23.3623C22.3312 23.6887 22.3333 24.1396 22.3333 24.875ZM10.2083 10.6667C9.65605 10.6667 9.20833 11.1144 9.20833 11.6667C9.20833 12.219 9.65605 12.6667 10.2083 12.6667H17.5C18.0523 12.6667 18.5 12.219 18.5 11.6667C18.5 11.1144 18.0523 10.6667 17.5 10.6667H10.2083Z" fill="#ACC0E2"/>
</g>
</svg>
