<svg width="32" height="32" viewBox="0 0 32 32" fill="none" xmlns="http://www.w3.org/2000/svg">
<path fill-rule="evenodd" clip-rule="evenodd" d="M16 28C22.6274 28 28 22.6274 28 16C28 9.37258 22.6274 4 16 4C9.37258 4 4 9.37258 4 16C4 22.6274 9.37258 28 16 28ZM12.9822 10.4913L21.6149 14.8076C22.5976 15.299 22.5976 16.7014 21.6149 17.1928L12.9822 21.5091C11.9184 22.041 10.6667 21.2674 10.6667 20.078V11.9224C10.6667 10.733 11.9184 9.95937 12.9822 10.4913Z" fill="#262F66" fill-opacity="0.25"/>
<path d="M22.2111 15.1057L12.4033 10.2018C11.6054 9.80288 10.6667 10.3831 10.6667 11.2751V20.7252C10.6667 21.6172 11.6054 22.1974 12.4033 21.7985L22.2111 16.8946C22.9482 16.5261 22.9482 15.4743 22.2111 15.1057Z" stroke="#222222" stroke-linecap="round" stroke-linejoin="round"/>
<circle cx="16" cy="16" r="12" stroke="#222222"/>
</svg>
