<svg xmlns="http://www.w3.org/2000/svg" width="20" height="20" viewBox="0 0 20 20" fill="none">
  <path fill-rule="evenodd" clip-rule="evenodd" d="M6.49173 12.7251L7.10006 9.88344C7.18863 9.48854 7.38811 9.12715 7.67506 8.84177L13.2334 3.33344C13.797 2.75925 14.5623 2.42742 15.3667 2.40844C15.9734 2.39974 16.5584 2.63375 16.9917 3.05844C17.9386 4.17716 17.8163 5.84779 16.7167 6.81677L11.1584 12.3751C10.873 12.6621 10.5116 12.8615 10.1167 12.9501L7.27506 13.5584H7.11673C6.90899 13.5664 6.71057 13.4719 6.58583 13.3056C6.4611 13.1393 6.42593 12.9223 6.49173 12.7251ZM8.5584 9.73344C8.44163 9.84659 8.36053 9.99143 8.32506 10.1501L7.91673 12.0918L9.8584 11.6751C10.0171 11.6396 10.1619 11.5585 10.2751 11.4418L15.8334 5.88344C16.4423 5.39596 16.5631 4.51717 16.1084 3.88344C15.9093 3.69319 15.642 3.59108 15.3667 3.6001C14.8922 3.61916 14.4438 3.82244 14.1167 4.16677L8.5584 9.73344Z" fill="black"/>
  <path d="M16.5917 9.10844C16.2484 9.11293 15.9712 9.39014 15.9667 9.73344V14.4751C15.9779 15.1453 15.7195 15.792 15.2494 16.2699C14.7793 16.7478 14.1371 17.0169 13.4667 17.0168H5.52507C4.13954 16.9896 3.02933 15.8609 3.02507 14.4751V6.56677C3.04781 5.17934 4.17912 4.06658 5.56673 4.06677H10.3084C10.6536 4.06677 10.9334 3.78695 10.9334 3.44177C10.9334 3.09659 10.6536 2.81677 10.3084 2.81677H5.52507C3.44715 2.81664 1.75623 4.48898 1.7334 6.56677V14.4751C1.7334 16.5692 3.43099 18.2668 5.52507 18.2668H13.4334C15.5242 18.2622 17.2167 16.5659 17.2167 14.4751V9.73344C17.2122 9.39014 16.935 9.11293 16.5917 9.10844Z" fill="black"/>
</svg>