<svg xmlns="http://www.w3.org/2000/svg" width="25" height="24" viewBox="0 0 25 24" fill="none">
  <ellipse cx="12.4999" cy="9" rx="4.16667" ry="4" fill="#33363F"/>
  <ellipse cx="17.7083" cy="9" rx="3.125" ry="3" fill="#33363F"/>
  <ellipse cx="7.29175" cy="9" rx="3.125" ry="3" fill="#33363F"/>
  <path fill-rule="evenodd" clip-rule="evenodd" d="M18.3006 18H20.7655C21.3588 18 21.8124 17.4874 21.6624 16.9134C21.2783 15.4427 20.2567 13 17.7085 13C16.7854 13 16.0627 13.3205 15.498 13.7991C17.0686 14.7773 17.8807 16.4902 18.3006 18Z" fill="#33363F"/>
  <path fill-rule="evenodd" clip-rule="evenodd" d="M9.50214 13.7991C8.93747 13.3205 8.21476 13 7.29175 13C4.74348 13 3.72188 15.4427 3.33773 16.9134C3.1878 17.4874 3.64138 18 4.23465 18H6.69962C7.1195 16.4902 7.93157 14.7773 9.50214 13.7991Z" fill="#33363F"/>
  <path d="M12.5001 14C16.3635 14 17.3611 17.3015 17.6187 19.0064C17.7013 19.5525 17.2607 20 16.7084 20H8.29175C7.73946 20 7.29891 19.5525 7.38142 19.0064C7.63902 17.3015 8.63662 14 12.5001 14Z" fill="#33363F"/>
</svg>