<svg xmlns="http://www.w3.org/2000/svg" width="16" height="15" viewBox="0 0 16 15" fill="none">
  <rect width="14.6331" height="14.1249" transform="translate(0.481445 0.166016)" fill="#262F66"/>
  <path d="M9.06241 2.45243C9.51677 1.97726 9.74395 1.73968 9.98533 1.6011C10.5678 1.26671 11.2851 1.25631 11.8773 1.57367C12.1227 1.70519 12.3568 1.93609 12.8251 2.39788C13.2934 2.85967 13.5276 3.09056 13.661 3.33258C13.9828 3.91652 13.9723 4.62374 13.6332 5.1981C13.4926 5.43614 13.2517 5.66015 12.7698 6.10816L7.03628 11.4387C6.1231 12.2877 5.6665 12.7123 5.09584 12.9274C4.52519 13.1425 3.89784 13.1267 2.64315 13.095L2.47245 13.0907C2.09048 13.0811 1.89949 13.0763 1.78848 12.9546C1.67745 12.833 1.69261 12.6452 1.72293 12.2697L1.73939 12.0657C1.82471 11.0086 1.86736 10.4801 2.08121 10.005C2.29506 9.52986 2.66393 9.14413 3.40168 8.37256L9.06241 2.45243Z" stroke="white" stroke-width="1.5" stroke-linejoin="round"/>
  <path d="M8.40771 2.52051L12.6757 6.64027" stroke="white" stroke-width="1.5" stroke-linejoin="round"/>
</svg>