<svg width="24" height="24" viewBox="0 0 24 24" fill="none" xmlns="http://www.w3.org/2000/svg">
<path d="M18.3152 8H10.6848C10.3066 8 10 8.3192 10 8.71296V18.287C10 18.6808 10.3066 19 10.6848 19H18.3152C18.6934 19 19 18.6808 19 18.287V8.71296C19 8.3192 18.6934 8 18.3152 8Z" stroke="black" stroke-width="0.7"/>
<path d="M18.9569 7H10.0431C9.46701 7 9 7.49249 9 8.1V19.9C9 20.5075 9.46701 21 10.0431 21H18.9569C19.533 21 20 20.5075 20 19.9V8.1C20 7.49249 19.533 7 18.9569 7Z" stroke="black" stroke-width="0.7"/>
<path fill-rule="evenodd" clip-rule="evenodd" d="M12.0606 14.6841H16.9394C17.1737 14.6841 17.3636 14.8883 17.3636 15.1402V19H18V15.1402C18 14.5105 17.5251 14 16.9394 14H12.0606C11.4749 14 11 14.5105 11 15.1402V19C11.0035 19 11.0071 19 11.0106 19H11.6364V15.1402C11.6364 14.8883 11.8263 14.6841 12.0606 14.6841Z" fill="black"/>
<path fill-rule="evenodd" clip-rule="evenodd" d="M13.0714 14.6733H15.9286V18.9207H16.4476C16.4652 18.9207 16.4826 18.9213 16.5 18.9224V14.6733V14H15.9286H13.0714H12.5V14.6733V19C12.609 18.9488 12.7279 18.9207 12.8523 18.9207H13.0714V14.6733Z" fill="black"/>
<path d="M11.2002 16.5064V17.1064H12.8002V16.5064H11.2002Z" fill="black"/>
<path d="M16 16.5104V17.1104H17.6V16.5104H16Z" fill="black"/>
<path fill-rule="evenodd" clip-rule="evenodd" d="M13 14.5C13 15.218 13.6716 15.8 14.5 15.8C15.3284 15.8 16 15.218 16 14.5H15.1818C15.1818 14.9134 14.811 15.15 14.5 15.15C14.189 15.15 13.8182 14.9134 13.8182 14.5H13Z" fill="black"/>
<path d="M14.5 13C15.3284 13 16 12.3284 16 11.5C16 10.6716 15.3284 10 14.5 10C13.6716 10 13 10.6716 13 11.5C13 12.3284 13.6716 13 14.5 13Z" stroke="black" stroke-width="0.765957"/>
<path d="M8.66907 7.26523C8.59575 7.18115 8.50873 7.11444 8.41294 7.06892C8.31714 7.02343 8.21445 7 8.11077 7C8.00708 7 7.90441 7.02343 7.80862 7.06892C7.71283 7.11444 7.62578 7.18115 7.55249 7.26523L7.40034 7.43964L7.24822 7.26523C7.10016 7.09545 6.89932 7.00008 6.68992 7.00008C6.48052 7.00008 6.27971 7.09545 6.13164 7.26523C5.98358 7.43497 5.90039 7.66524 5.90039 7.90532C5.90039 8.1454 5.98358 8.37564 6.13164 8.54541L6.28377 8.71982L7.40034 10L8.51692 8.71982L8.66907 8.54541C8.74241 8.46135 8.80058 8.36156 8.84028 8.25174C8.87997 8.14191 8.90039 8.0242 8.90039 7.90532C8.90039 7.78644 8.87997 7.6687 8.84028 7.55887C8.80058 7.44905 8.74241 7.34925 8.66907 7.26523Z" stroke="black" stroke-width="0.7" stroke-linecap="round" stroke-linejoin="round"/>
<path d="M8.66906 11.7652C8.59575 11.6811 8.50873 11.6144 8.41292 11.5689C8.31714 11.5234 8.21445 11.5 8.11076 11.5C8.00707 11.5 7.90442 11.5234 7.80861 11.5689C7.71283 11.6144 7.62577 11.6811 7.55249 11.7652L7.40036 11.9396L7.24821 11.7652C7.10014 11.5955 6.89934 11.5001 6.68994 11.5001C6.48054 11.5001 6.2797 11.5955 6.13164 11.7652C5.98357 11.935 5.90039 12.1652 5.90039 12.4053C5.90039 12.6454 5.98357 12.8756 6.13164 13.0454L6.28376 13.2198L7.40036 14.5L8.51694 13.2198L8.66906 13.0454C8.7424 12.9614 8.80057 12.8616 8.84028 12.7517C8.87996 12.6419 8.90039 12.5242 8.90039 12.4053C8.90039 12.2864 8.87996 12.1687 8.84028 12.0589C8.80057 11.9491 8.7424 11.8493 8.66906 11.7652Z" stroke="black" stroke-width="0.7" stroke-linecap="round" stroke-linejoin="round"/>
<path fill-rule="evenodd" clip-rule="evenodd" d="M4.91837 5.63158H12.0816C12.2845 5.63158 12.449 5.82009 12.449 6.05263V7H13V6.05263C13 5.47128 12.5888 5 12.0816 5H4.91837C4.41117 5 4 5.47128 4 6.05263V15.9474C4 16.5287 4.41117 17 4.91837 17H9V16.3684H4.91837C4.71549 16.3684 4.55102 16.1799 4.55102 15.9474V6.05263C4.55102 5.82009 4.71549 5.63158 4.91837 5.63158Z" fill="black"/>
<path fill-rule="evenodd" clip-rule="evenodd" d="M4.2623 4.61644H12.7377C13.7101 4.61644 13.5 6.54607 13.5 7H14C14 6.20562 14 4 12.7377 4H4.2623C3.56515 4 3 4.64397 3 5.43836V17.5616C3 18.356 3.56515 19 4.2623 19H9V18.3836H4.2623C3.86393 18.3836 3.54098 18.0156 3.54098 17.5616V5.43836C3.54098 4.98442 3.86393 4.61644 4.2623 4.61644Z" fill="black"/>
</svg>
