<svg width="24" height="24" xmlns="http://www.w3.org/2000/svg" viewBox="0 0 64 80" x="0px" y="0px">
  <g>
    <path d="M37,40H47a1,1,0,0,0,1-1V27a1,1,0,0,0-1-1H37a1,1,0,0,0-1,1V39A1,1,0,0,0,37,40Zm1-12h8V38H38Z"/>
    <path d="M58,56V18H26V56ZM32,54V50h2v4Zm2-6H32V45a1,1,0,0,1,1-1h1Zm2,6V44h2.083c.273,1.754,1.294,4,3.917,4s3.644-2.246,3.917-4H48V54Zm4.117-10h3.766c-.184.874-.658,2-1.883,2S40.3,44.874,40.117,44ZM50,54V50h2v4Zm2-6H50V44h1a1,1,0,0,1,1,1ZM28,54V20H56V54H54V45a3,3,0,0,0-3-3H33a3,3,0,0,0-3,3v9Z"/>
    <rect x="51" y="28" width="2" height="2"/><rect x="51" y="22" width="2" height="4"/>
    <path d="M42,2H2V50H22V62H62V14H42ZM4,48V4H40V14H38V6H6V44H22v4ZM22,14v.167a2.1,2.1,0,0,1-.707,1.126L17,19.584l-4.3-4.323A1.863,1.863,0,0,1,12,14a1.863,1.863,0,0,1,.7-1.261,2.747,2.747,0,0,1,3.623,0l.674.615.674-.615a2.8,2.8,0,0,1,3.652,0,1.863,1.863,0,0,1,.7,1.261Zm.674-2.739a4.827,4.827,0,0,0-5.674-.5,4.805,4.805,0,0,0-5.645.5A3.723,3.723,0,0,0,10,14a3.68,3.68,0,0,0,1.32,2.7L17,22.416l5-5V30.622a3.464,3.464,0,0,0-.341-.375A4.058,4.058,0,0,0,17,29.779a4.058,4.058,0,0,0-4.659.468A3.752,3.752,0,0,0,12.4,35.8L17,39.25l4.659-3.5A3.464,3.464,0,0,0,22,35.378V42H8V8H36v6H24.029A3.72,3.72,0,0,0,22.674,11.261ZM20.858,33a1.642,1.642,0,0,1-.458,1.2L17,36.75l-3.341-2.5a1.762,1.762,0,0,1,0-2.494,2.042,2.042,0,0,1,2.682,0l.659.576.659-.576a2.041,2.041,0,0,1,2.682,0A1.642,1.642,0,0,1,20.858,33ZM60,60H24V16H60Z"/>
    <rect x="31" y="10" width="2" height="2"/>
    <rect x="27" y="10" width="2" height="2"/>
  </g>
</svg>