<svg width="24" height="24" viewBox="0 0 22 28" fill="none" xmlns="http://www.w3.org/2000/svg">
<!-- <rect x="5.7002" y="0.5" width="15.4667" height="19.8" rx="3.5" fill="white" stroke="#222222"/> -->
<rect x="3.09961" y="3.09998" width="15.4667" height="19.8" rx="3.5" fill="white" stroke="#222222"/>
<rect x="0.5" y="5.69995" width="15.4667" height="19.8" rx="3.5" fill="white" stroke="#222222"/>
<path d="M5.77967 15.7868L8.03927 17.9095C8.14828 18.0119 8.31812 18.0119 8.42713 17.9095L10.6867 15.7868C11.3225 15.1896 11.3997 14.2068 10.865 13.5176L10.7645 13.3881C10.1248 12.5636 8.84083 12.7019 8.39137 13.6436C8.32788 13.7766 8.13853 13.7766 8.07504 13.6436C7.62557 12.7019 6.34161 12.5636 5.70195 13.3881L5.60141 13.5176C5.06671 14.2068 5.14392 15.1896 5.77967 15.7868Z" stroke="#222222"/>
<path d="M2.37636 8.94228L3.38063 9.88568C3.42908 9.93119 3.50456 9.93119 3.55301 9.88568L4.55728 8.94228C4.83984 8.67684 4.87415 8.24005 4.6365 7.93375L4.59182 7.87615C4.30753 7.50973 3.73688 7.57118 3.53711 7.98973C3.5089 8.04885 3.42474 8.04885 3.39652 7.98973C3.19676 7.57118 2.62611 7.50973 2.34182 7.87615L2.29713 7.93375C2.05949 8.24005 2.0938 8.67684 2.37636 8.94228Z" stroke="#222222" stroke-width="0.5"/>
<path d="M14.0904 22.2578L13.0862 21.3144C13.0377 21.2689 12.9622 21.2689 12.9138 21.3144L11.9095 22.2578C11.627 22.5232 11.5926 22.96 11.8303 23.2663L11.875 23.3239C12.1593 23.6903 12.7299 23.6289 12.9297 23.2103C12.9579 23.1512 13.0421 23.1512 13.0703 23.2103C13.27 23.6289 13.8407 23.6903 14.125 23.3239L14.1697 23.2663C14.4073 22.96 14.373 22.5232 14.0904 22.2578Z" stroke="#222222" stroke-width="0.5"/>
</svg>
