<svg xmlns="http://www.w3.org/2000/svg" width="26" height="26" viewBox="0 0 26 26" fill="none">
  <path d="M15.3142 3.64188H15.8142V3.61695L15.8118 3.59213L15.3142 3.64188ZM15.1043 2.62832L14.683 2.89766L14.683 2.89766L15.1043 2.62832ZM15.3142 3.6419H14.8142V3.66684L14.8167 3.69165L15.3142 3.6419ZM15.722 5.43418L16.0748 5.07986L16.0748 5.07986L15.722 5.43418ZM16.4254 5.72555L16.4265 5.22555L16.4265 5.22555L16.4254 5.72555ZM17.9811 4.74655L17.6658 4.35849L17.6645 4.35957L17.9811 4.74655ZM17.9811 4.74654L18.2964 5.1346L18.2977 5.13352L17.9811 4.74654ZM18.8463 4.17833L18.9537 4.66665L18.9537 4.66665L18.8463 4.17833ZM19.3721 4.20455L19.2166 4.67976L19.2166 4.67976L19.3721 4.20455ZM20.1764 4.85604L20.5299 4.50249L20.5299 4.50249L20.1764 4.85604ZM21.1443 5.82397L20.7908 6.17752L20.7908 6.17752L21.1443 5.82397ZM21.7958 6.62829L21.3206 6.78377L21.3206 6.78378L21.7958 6.62829ZM21.822 7.15411L22.3104 7.26153L22.3104 7.26153L21.822 7.15411ZM21.2538 8.01927L21.6408 8.33589L21.6408 8.33589L21.2538 8.01927ZM20.2748 9.57497L19.7748 9.57605L19.7748 9.57605L20.2748 9.57497ZM20.5662 10.2784L20.9205 9.9256L20.9205 9.9256L20.5662 10.2784ZM22.3585 10.6862L22.4082 10.1886L22.4082 10.1886L22.3585 10.6862ZM23.3721 10.8961L23.1028 11.3174L23.1028 11.3174L23.3721 10.8961ZM23.7253 11.2865L23.2794 11.5126L23.2794 11.5126L23.7253 11.2865ZM23.7254 14.7141L23.2794 14.488L23.2794 14.488L23.7254 14.7141ZM23.372 15.1046L23.6413 15.5259L23.6413 15.5259L23.372 15.1046ZM22.3586 15.3145L22.3088 14.817L22.3088 14.817L22.3586 15.3145ZM20.5667 15.7221L20.921 16.0749L20.921 16.0749L20.5667 15.7221ZM20.2752 16.4259L19.7752 16.4249L19.7752 16.4249L20.2752 16.4259ZM21.254 17.981L21.641 17.6644L21.641 17.6644L21.254 17.981ZM21.8221 18.8459L22.3104 18.7384L22.3104 18.7384L21.8221 18.8459ZM21.7958 19.372L22.271 19.5276L22.271 19.5276L21.7958 19.372ZM21.1445 20.1761L20.7909 19.8225L20.7909 19.8225L21.1445 20.1761ZM20.1764 21.1441L20.53 21.4977L20.53 21.4977L20.1764 21.1441ZM19.3721 21.7956L19.2166 21.3204L19.2166 21.3204L19.3721 21.7956ZM18.8463 21.8218L18.7389 22.3102L18.7389 22.3102L18.8463 21.8218ZM17.9812 21.2536L18.2978 20.8666L18.2978 20.8666L17.9812 21.2536ZM16.4255 20.2746L16.4244 19.7746L16.4244 19.7746L16.4255 20.2746ZM15.7221 20.566L16.0748 20.9203L16.0748 20.9203L15.7221 20.566ZM15.3143 22.3585L14.8167 22.3088L14.8167 22.3088L15.3143 22.3585ZM15.1042 23.3724L15.5254 23.6418L15.5254 23.6418L15.1042 23.3724ZM14.714 23.7255L14.4879 23.2796L14.4879 23.2796L14.714 23.7255ZM11.2862 23.7256L11.5123 23.2796L11.5123 23.2796L11.2862 23.7256ZM10.8959 23.3723L11.3171 23.103L11.3171 23.103L10.8959 23.3723ZM10.6859 22.3588L10.1884 22.4085L10.1884 22.4085L10.6859 22.3588ZM10.2781 20.5664L10.6309 20.2121L10.6309 20.2121L10.2781 20.5664ZM9.57474 20.275L9.57365 20.775L9.57365 20.775L9.57474 20.275ZM8.019 21.2541L8.33561 21.6411L8.33561 21.6411L8.019 21.2541ZM7.1538 21.8223L7.26121 22.3107L7.26122 22.3107L7.1538 21.8223ZM6.62801 21.7961L6.47254 22.2713L6.47254 22.2713L6.62801 21.7961ZM5.82366 21.1446L6.17721 20.791L6.17721 20.791L5.82366 21.1446ZM4.85576 20.1767L4.50221 20.5303L4.50221 20.5303L4.85576 20.1767ZM4.20426 19.3724L3.72904 19.5278L3.72904 19.5278L4.20426 19.3724ZM4.17803 18.8466L4.66635 18.954L4.66635 18.954L4.17803 18.8466ZM4.74628 17.9814L4.3593 17.6648L4.3593 17.6648L4.74628 17.9814ZM5.7253 16.4257L6.22529 16.4246L6.22529 16.4246L5.7253 16.4257ZM5.43393 15.7223L5.78824 15.3695L5.78824 15.3695L5.43393 15.7223ZM3.64163 15.3145L3.69138 14.817L3.66657 14.8145H3.64163V15.3145ZM3.64163 15.3145L3.59187 15.812L3.61669 15.8145H3.64163V15.3145ZM2.62808 15.1045L2.35875 15.5258L2.35875 15.5258L2.62808 15.1045ZM2.27481 14.7142L2.72078 14.4881L2.72078 14.4881L2.27481 14.7142ZM2.27486 11.2864L2.7208 11.5125L2.7208 11.5125L2.27486 11.2864ZM2.62799 10.8962L2.89737 11.3174L2.89737 11.3174L2.62799 10.8962ZM3.64176 10.6862L3.59201 10.1886L3.59201 10.1886L3.64176 10.6862ZM5.43444 10.2782L5.08007 9.92551L5.08007 9.92551L5.43444 10.2782ZM5.7257 9.57509L5.2257 9.57393L5.2257 9.57393L5.7257 9.57509ZM4.74647 8.01897L4.34647 8.31897L4.3528 8.32741L4.35949 8.33558L4.74647 8.01897ZM4.74646 8.01896L5.14646 7.71896L5.14013 7.71052L5.13344 7.70234L4.74646 8.01896ZM4.17805 7.15346L3.68971 7.26081L3.68971 7.26081L4.17805 7.15346ZM4.20426 6.62795L3.72902 6.47254L3.72902 6.47254L4.20426 6.62795ZM5.82371 4.85557L5.47015 4.50202L5.47015 4.50202L5.82371 4.85557ZM6.62806 4.20406L6.78354 4.67927L6.78354 4.67927L6.62806 4.20406ZM7.15384 4.17783L7.04643 4.66616L7.04643 4.66616L7.15384 4.17783ZM8.01912 4.74615L8.37268 4.39259L8.35504 4.37496L8.33574 4.35917L8.01912 4.74615ZM8.01913 4.74615L7.66557 5.0997L7.68321 5.11734L7.70251 5.13313L8.01913 4.74615ZM9.5746 5.72512L9.57361 5.22512L9.57361 5.22512L9.5746 5.72512ZM10.2783 5.43364L10.6312 5.78789L10.6312 5.78789L10.2783 5.43364ZM10.6859 3.64174L11.1835 3.69149L11.1835 3.69149L10.6859 3.64174ZM10.8958 2.62842L10.4745 2.35913L10.4745 2.35913L10.8958 2.62842ZM11.2863 2.275L11.0603 1.82901L11.0603 1.82901L11.2863 2.275ZM14.7139 2.27506L14.94 1.82909L14.94 1.82909L14.7139 2.27506ZM15.8118 3.59213C15.7855 3.32968 15.7632 3.10249 15.7289 2.91681C15.6934 2.7245 15.6387 2.53592 15.5255 2.35899L14.683 2.89766C14.6986 2.92209 14.7218 2.96955 14.7455 3.09831C14.7705 3.23371 14.7888 3.41262 14.8167 3.69164L15.8118 3.59213ZM15.8142 3.6419V3.64188H14.8142V3.6419H15.8142ZM16.0748 5.07986C16.0568 5.06199 16.0043 4.99401 15.9518 4.73051C15.9003 4.47184 15.8641 4.11586 15.8118 3.59214L14.8167 3.69165C14.867 4.19431 14.9078 4.6081 14.9711 4.9258C15.0334 5.23866 15.1334 5.55364 15.3692 5.78849L16.0748 5.07986ZM16.4265 5.22555C16.2947 5.22527 16.1682 5.1729 16.0748 5.07986L15.3692 5.78849C15.6495 6.06761 16.0288 6.2247 16.4244 6.22555L16.4265 5.22555ZM17.6645 4.35957C17.2571 4.69286 16.9798 4.919 16.7605 5.06549C16.5371 5.21471 16.4519 5.2256 16.4265 5.22555L16.4244 6.22555C16.7572 6.22626 17.0506 6.07425 17.3159 5.89707C17.5853 5.71716 17.9068 5.45342 18.2977 5.13353L17.6645 4.35957ZM17.6658 4.35848L17.6658 4.35849L18.2964 5.13461L18.2964 5.1346L17.6658 4.35848ZM18.7388 3.69001C18.5337 3.73512 18.3617 3.82974 18.2006 3.94062C18.0451 4.04768 17.8686 4.19255 17.6645 4.35956L18.2977 5.13352C18.5148 4.95596 18.6542 4.84239 18.7676 4.76433C18.8754 4.69008 18.9254 4.67288 18.9537 4.66665L18.7388 3.69001ZM19.5276 3.72935C19.2729 3.64601 19.0005 3.63243 18.7388 3.69001L18.9537 4.66665C19.0409 4.64746 19.1317 4.65199 19.2166 4.67976L19.5276 3.72935ZM20.5299 4.50249C20.3434 4.31599 20.1823 4.15428 20.0382 4.03228C19.889 3.90592 19.7272 3.79465 19.5276 3.72935L19.2166 4.67976C19.2442 4.68878 19.2921 4.71087 19.392 4.79547C19.4971 4.88444 19.6246 5.01132 19.8228 5.2096L20.5299 4.50249ZM21.4979 5.47041L20.5299 4.50249L19.8228 5.2096L20.7908 6.17752L21.4979 5.47041ZM22.271 6.47281C22.2057 6.27323 22.0945 6.11141 21.9681 5.96216C21.8461 5.81806 21.6844 5.65692 21.4979 5.47041L20.7908 6.17752C20.989 6.3758 21.1159 6.50325 21.2049 6.60833C21.2895 6.70826 21.3116 6.75621 21.3206 6.78377L22.271 6.47281ZM22.3104 7.26153C22.3679 6.99983 22.3544 6.72749 22.271 6.47281L21.3206 6.78378C21.3484 6.86866 21.3529 6.95945 21.3337 7.04668L22.3104 7.26153ZM21.6408 8.33589C21.8078 8.13175 21.9527 7.95532 22.0597 7.79979C22.1706 7.63871 22.2652 7.46663 22.3104 7.26153L21.3337 7.04668C21.3275 7.075 21.3103 7.12492 21.236 7.23277C21.158 7.34618 21.0444 7.48562 20.8668 7.70265L21.6408 8.33589ZM20.7748 9.57389C20.7747 9.54855 20.7856 9.46332 20.9349 9.23988C21.0813 9.02055 21.3075 8.74325 21.6408 8.33589L20.8668 7.70265C20.5469 8.09364 20.2832 8.4151 20.1033 8.68448C19.9261 8.94977 19.7741 9.24321 19.7748 9.57605L20.7748 9.57389ZM20.9205 9.9256C20.8274 9.83216 20.7751 9.70575 20.7748 9.57389L19.7748 9.57605C19.7757 9.97163 19.9327 10.3509 20.2118 10.6312L20.9205 9.9256ZM22.4082 10.1886C21.8845 10.1363 21.5285 10.1001 21.2698 10.0486C21.0063 9.99612 20.9384 9.94355 20.9205 9.9256L20.2118 10.6312C20.4467 10.867 20.7617 10.967 21.0745 11.0293C21.3923 11.0926 21.8061 11.1334 22.3087 11.1837L22.4082 10.1886ZM23.6414 10.4749C23.4645 10.3618 23.2759 10.307 23.0836 10.2715C22.8979 10.2372 22.6707 10.2149 22.4082 10.1886L22.3087 11.1837C22.5878 11.2116 22.7667 11.2299 22.9021 11.2549C23.0309 11.2786 23.0783 11.3018 23.1028 11.3174L23.6414 10.4749ZM24.1713 11.0604C24.0501 10.8214 23.8672 10.6192 23.6414 10.4749L23.1028 11.3174C23.178 11.3655 23.239 11.4329 23.2794 11.5126L24.1713 11.0604ZM24.3334 12.3159C24.3334 12.0522 24.3338 11.8239 24.3182 11.6357C24.302 11.4408 24.2663 11.2477 24.1713 11.0604L23.2794 11.5126C23.2925 11.5384 23.3108 11.588 23.3216 11.7184C23.333 11.8557 23.3334 12.0355 23.3334 12.3159H24.3334ZM24.3334 13.6849V12.3159H23.3334V13.6849H24.3334ZM24.1714 14.9401C24.2663 14.7529 24.302 14.5598 24.3182 14.3649C24.3338 14.1768 24.3334 13.9486 24.3334 13.6849H23.3334C23.3334 13.9652 23.333 14.145 23.3216 14.2822C23.3108 14.4127 23.2925 14.4622 23.2794 14.488L24.1714 14.9401ZM23.6413 15.5259C23.8672 15.3815 24.0502 15.1792 24.1714 14.9401L23.2794 14.488C23.239 14.5677 23.178 14.6352 23.1027 14.6833L23.6413 15.5259ZM22.4083 15.812C22.6708 15.7858 22.8979 15.7634 23.0836 15.7292C23.2758 15.6937 23.4644 15.6389 23.6413 15.5259L23.1027 14.6833C23.0783 14.6989 23.0308 14.722 22.9021 14.7458C22.7667 14.7708 22.5878 14.7891 22.3088 14.817L22.4083 15.812ZM20.921 16.0749C20.9388 16.057 21.0068 16.0045 21.2703 15.952C21.5289 15.9005 21.8848 15.8644 22.4083 15.812L22.3088 14.817C21.8063 14.8672 21.3926 14.908 21.075 14.9712C20.7622 15.0335 20.4473 15.1335 20.2125 15.3692L20.921 16.0749ZM20.7752 16.4268C20.7755 16.2949 20.8279 16.1684 20.921 16.0749L20.2125 15.3692C19.9331 15.6496 19.776 16.0291 19.7752 16.4249L20.7752 16.4268ZM21.641 17.6644C21.3078 17.2572 21.0817 16.98 20.9352 16.7607C20.7861 16.5374 20.7752 16.4522 20.7752 16.4268L19.7752 16.4249C19.7746 16.7576 19.9265 17.051 20.1037 17.3162C20.2835 17.5855 20.5472 17.9068 20.867 18.2977L21.641 17.6644ZM22.3104 18.7384C22.2652 18.5334 22.1706 18.3614 22.0598 18.2003C21.9527 18.0449 21.8079 17.8685 21.641 17.6644L20.867 18.2977C21.0445 18.5146 21.158 18.654 21.2361 18.7674C21.3103 18.8752 21.3275 18.9251 21.3338 18.9534L22.3104 18.7384ZM22.271 19.5276C22.3544 19.2728 22.368 19.0003 22.3104 18.7384L21.3338 18.9534C21.353 19.0407 21.3484 19.1315 21.3206 19.2165L22.271 19.5276ZM21.4981 20.5296C21.6845 20.3432 21.8462 20.1821 21.9681 20.038C22.0944 19.8888 22.2057 19.7271 22.271 19.5276L21.3206 19.2165C21.3116 19.244 21.2895 19.292 21.2049 19.3919C21.116 19.4969 20.9892 19.6243 20.7909 19.8225L21.4981 20.5296ZM20.53 21.4977L21.4981 20.5296L20.7909 19.8225L19.8229 20.7906L20.53 21.4977ZM19.5276 22.2708C19.7272 22.2055 19.889 22.0943 20.0383 21.9679C20.1824 21.8459 20.3435 21.6842 20.53 21.4977L19.8229 20.7906C19.6246 20.9889 19.4972 21.1157 19.3921 21.2047C19.2922 21.2893 19.2442 21.3114 19.2166 21.3204L19.5276 22.2708ZM18.7389 22.3102C19.0006 22.3677 19.2729 22.3542 19.5276 22.2708L19.2166 21.3204C19.1318 21.3482 19.041 21.3527 18.9537 21.3335L18.7389 22.3102ZM17.6645 21.6406C17.8687 21.8076 18.0451 21.9525 18.2006 22.0595C18.3617 22.1704 18.5338 22.265 18.7389 22.3102L18.9537 21.3335C18.9254 21.3273 18.8755 21.3101 18.7676 21.2358C18.6542 21.1578 18.5148 21.0442 18.2978 20.8666L17.6645 21.6406ZM16.4266 20.7746C16.4519 20.7746 16.5371 20.7855 16.7606 20.9347C16.9799 21.0812 17.2572 21.3073 17.6645 21.6406L18.2978 20.8666C17.9068 20.5468 17.5853 20.283 17.316 20.1031C17.0507 19.9259 16.7573 19.7739 16.4244 19.7746L16.4266 20.7746ZM16.0748 20.9203C16.1683 20.8273 16.2947 20.7749 16.4266 20.7746L16.4244 19.7746C16.0288 19.7755 15.6496 19.9326 15.3693 20.2117L16.0748 20.9203ZM15.8118 22.4083C15.8642 21.8845 15.9003 21.5284 15.9518 21.2697C16.0043 21.0062 16.0569 20.9382 16.0748 20.9203L15.3693 20.2117C15.1334 20.4465 15.0334 20.7616 14.9711 21.0744C14.9078 21.3922 14.867 21.806 14.8167 22.3088L15.8118 22.4083ZM15.5254 23.6418C15.6386 23.4649 15.6934 23.2762 15.7289 23.0838C15.7632 22.8981 15.7855 22.6708 15.8118 22.4083L14.8167 22.3088C14.7888 22.5879 14.7705 22.7669 14.7455 22.9023C14.7218 23.0311 14.6986 23.0786 14.683 23.103L15.5254 23.6418ZM14.9402 24.1715C15.179 24.0503 15.3811 23.8675 15.5254 23.6418L14.683 23.103C14.6349 23.1783 14.5675 23.2392 14.4879 23.2796L14.9402 24.1715ZM13.6843 24.3337C13.9482 24.3337 14.1765 24.3341 14.3647 24.3184C14.5597 24.3022 14.7528 24.2665 14.9402 24.1715L14.4879 23.2796C14.462 23.2927 14.4125 23.311 14.282 23.3219C14.1447 23.3333 13.9648 23.3337 13.6843 23.3337V24.3337ZM12.3157 24.3337H13.6843V23.3337H12.3157V24.3337ZM11.0601 24.1716C11.2474 24.2665 11.4406 24.3023 11.6354 24.3184C11.8236 24.3341 12.0519 24.3337 12.3157 24.3337V23.3337C12.0353 23.3337 11.8554 23.3333 11.7182 23.3219C11.5877 23.311 11.5382 23.2927 11.5123 23.2796L11.0601 24.1716ZM10.4746 23.6417C10.619 23.8674 10.8211 24.0504 11.0601 24.1716L11.5123 23.2796C11.4326 23.2392 11.3653 23.1782 11.3171 23.103L10.4746 23.6417ZM10.1884 22.4085C10.2146 22.671 10.237 22.8982 10.2712 23.0838C10.3067 23.2762 10.3615 23.4647 10.4746 23.6417L11.3171 23.103C11.3015 23.0786 11.2784 23.0311 11.2546 22.9023C11.2296 22.7669 11.2113 22.588 11.1834 22.309L10.1884 22.4085ZM9.92535 20.9207C9.9433 20.9386 9.99587 21.0066 10.0483 21.2701C10.0999 21.5288 10.136 21.8848 10.1884 22.4085L11.1834 22.309C11.1332 21.8063 11.0924 21.3925 11.0291 21.0748C10.9668 20.7619 10.8668 20.4469 10.6309 20.2121L9.92535 20.9207ZM9.57365 20.775C9.70551 20.7753 9.83191 20.8277 9.92535 20.9207L10.6309 20.2121C10.3506 19.933 9.97139 19.7759 9.57583 19.7751L9.57365 20.775ZM8.33561 21.6411C8.74299 21.3078 9.0203 21.0816 9.23963 20.9351C9.46307 20.7859 9.54832 20.775 9.57365 20.775L9.57583 19.7751C9.24298 19.7743 8.94953 19.9263 8.68424 20.1035C8.41484 20.2834 8.09337 20.5472 7.70238 20.8671L8.33561 21.6411ZM7.26122 22.3107C7.46632 22.2655 7.63841 22.1709 7.7995 22.06C7.95503 21.953 8.13147 21.8081 8.33561 21.6411L7.70238 20.8671C7.48534 21.0447 7.34589 21.1583 7.23248 21.2363C7.12462 21.3106 7.0747 21.3278 7.04638 21.334L7.26122 22.3107ZM6.47254 22.2713C6.7272 22.3546 6.99953 22.3682 7.26121 22.3107L7.04638 21.334C6.95915 21.3532 6.86837 21.3487 6.78349 21.3209L6.47254 22.2713ZM5.4701 21.4981C5.65662 21.6847 5.81776 21.8464 5.96187 21.9684C6.11113 22.0948 6.27295 22.206 6.47254 22.2713L6.78349 21.3209C6.75593 21.3119 6.70797 21.2898 6.60804 21.2052C6.50295 21.1162 6.3755 20.9893 6.17721 20.791L5.4701 21.4981ZM4.50221 20.5303L5.4701 21.4981L6.17721 20.791L5.20932 19.8231L4.50221 20.5303ZM3.72904 19.5278C3.79435 19.7274 3.90562 19.8892 4.03199 20.0385C4.15399 20.1826 4.3157 20.3437 4.50221 20.5303L5.20932 19.8231C5.01103 19.6249 4.88415 19.4974 4.79518 19.3923C4.71057 19.2924 4.68848 19.2444 4.67947 19.2169L3.72904 19.5278ZM3.68971 18.7391C3.63214 19.0008 3.64572 19.2732 3.72904 19.5278L4.67947 19.2169C4.65169 19.132 4.64717 19.0412 4.66635 18.954L3.68971 18.7391ZM4.3593 17.6648C4.19227 17.8689 4.0474 18.0453 3.94033 18.2009C3.82944 18.362 3.73482 18.534 3.68971 18.7391L4.66635 18.954C4.67258 18.9257 4.68979 18.8757 4.76404 18.7679C4.84211 18.6545 4.95568 18.515 5.13326 18.298L4.3593 17.6648ZM5.2253 16.4268C5.22535 16.4521 5.21446 16.5373 5.06523 16.7608C4.91874 16.9801 4.69259 17.2574 4.3593 17.6648L5.13326 18.298C5.45315 17.907 5.7169 17.5856 5.89682 17.3162C6.07399 17.0509 6.22601 16.7574 6.22529 16.4246L5.2253 16.4268ZM5.07961 16.075C5.17265 16.1685 5.22501 16.2949 5.2253 16.4268L6.22529 16.4246C6.22444 16.029 6.06736 15.6498 5.78824 15.3695L5.07961 16.075ZM3.59188 15.812C4.1156 15.8644 4.47158 15.9005 4.73025 15.952C4.99376 16.0045 5.06173 16.0571 5.07961 16.075L5.78824 15.3695C5.55339 15.1336 5.23841 15.0336 4.92555 14.9713C4.60784 14.908 4.19405 14.8672 3.69138 14.817L3.59188 15.812ZM3.64163 15.8145H3.64163V14.8145H3.64163V15.8145ZM2.35875 15.5258C2.53567 15.6389 2.72425 15.6937 2.91657 15.7292C3.10224 15.7634 3.32943 15.7858 3.59187 15.812L3.69138 14.817C3.41236 14.7891 3.23346 14.7708 3.09806 14.7458C2.96931 14.722 2.92185 14.6989 2.89741 14.6833L2.35875 15.5258ZM1.82884 14.9402C1.95001 15.1793 2.13298 15.3814 2.35875 15.5258L2.89742 14.6833C2.82216 14.6351 2.76117 14.5678 2.72078 14.4881L1.82884 14.9402ZM1.66675 13.6848C1.66675 13.9485 1.66635 14.1768 1.68197 14.365C1.69815 14.5598 1.73389 14.7529 1.82884 14.9402L2.72078 14.4881C2.70767 14.4622 2.68938 14.4127 2.67854 14.2822C2.66715 14.145 2.66675 13.9652 2.66675 13.6848H1.66675ZM1.66675 12.316V13.6848H2.66675V12.316H1.66675ZM1.82892 11.0603C1.73392 11.2476 1.69817 11.4407 1.68198 11.6357C1.66635 11.8239 1.66675 12.0522 1.66675 12.316H2.66675C2.66675 12.0356 2.66715 11.8557 2.67855 11.7184C2.68939 11.5879 2.70769 11.5384 2.7208 11.5125L1.82892 11.0603ZM2.35861 10.475C2.13295 10.6193 1.95005 10.8214 1.82892 11.0603L2.7208 11.5125C2.76118 11.4329 2.82215 11.3655 2.89737 11.3174L2.35861 10.475ZM3.59201 10.1886C3.3295 10.2149 3.10226 10.2372 2.91655 10.2715C2.72419 10.307 2.53557 10.3618 2.35861 10.475L2.89737 11.3174C2.92181 11.3018 2.96927 11.2786 3.09806 11.2549C3.23349 11.2299 3.41244 11.2116 3.69152 11.1837L3.59201 10.1886ZM5.08007 9.92551C5.06219 9.94347 4.99421 9.99606 4.73065 10.0486C4.47192 10.1001 4.11585 10.1363 3.59201 10.1886L3.69152 11.1837C4.1943 11.1334 4.60819 11.0926 4.92597 11.0293C5.2389 10.967 5.55395 10.8669 5.78881 10.631L5.08007 9.92551ZM5.2257 9.57393C5.2254 9.70574 5.17306 9.83209 5.08007 9.92551L5.78881 10.631C6.06777 10.3507 6.22479 9.97166 6.2257 9.57624L5.2257 9.57393ZM4.35949 8.33558C4.69288 8.74306 4.91909 9.02044 5.06561 9.23983C5.21488 9.46333 5.22576 9.54859 5.2257 9.57393L6.2257 9.57624C6.22647 9.24332 6.07442 8.9498 5.89721 8.68445C5.71725 8.41499 5.45343 8.09344 5.13344 7.70235L4.35949 8.33558ZM4.34646 8.31896L4.34647 8.31897L5.14647 7.71897L5.14646 7.71896L4.34646 8.31896ZM3.68971 7.26081C3.73481 7.46599 3.82945 7.63814 3.94037 7.79928C4.04747 7.95486 4.1924 8.13136 4.35948 8.33558L5.13344 7.70234C4.95581 7.48523 4.84219 7.34574 4.76409 7.23228C4.68982 7.12438 4.67261 7.07445 4.66639 7.04611L3.68971 7.26081ZM3.72902 6.47254C3.64579 6.72708 3.63221 6.99926 3.68971 7.26081L4.66639 7.04612C4.64722 6.95893 4.65175 6.8682 4.67949 6.78336L3.72902 6.47254ZM4.50239 5.46978C4.31582 5.65635 4.15406 5.81755 4.03202 5.9617C3.90561 6.111 3.79431 6.27288 3.72902 6.47254L4.67949 6.78336C4.68851 6.75579 4.7106 6.70781 4.79523 6.60785C4.88422 6.50273 5.01115 6.37524 5.20949 6.17689L4.50239 5.46978ZM5.47015 4.50202L4.50239 5.46978L5.20949 6.17689L6.17726 5.20913L5.47015 4.50202ZM5.47015 4.50202L5.47015 4.50202L6.17726 5.20913L6.17726 5.20912L5.47015 4.50202ZM6.47259 3.72884C6.27299 3.79414 6.11117 3.90542 5.96192 4.03179C5.81781 4.15379 5.65667 4.31551 5.47015 4.50202L6.17726 5.20912C6.37555 5.01084 6.503 4.88395 6.60809 4.79498C6.70802 4.71037 6.75597 4.68829 6.78354 4.67927L6.47259 3.72884ZM7.26126 3.68951C6.99958 3.63194 6.72725 3.64553 6.47259 3.72884L6.78354 4.67927C6.86842 4.6515 6.9592 4.64697 7.04643 4.66616L7.26126 3.68951ZM8.33574 4.35917C8.13157 4.19212 7.95511 4.04723 7.79957 3.94015C7.63847 3.82925 7.46637 3.73462 7.26126 3.68951L7.04643 4.66616C7.07474 4.67239 7.12466 4.68959 7.23254 4.76385C7.34597 4.84194 7.48544 4.95553 7.7025 5.13313L8.33574 4.35917ZM8.37268 4.3926L8.37268 4.39259L7.66557 5.0997L7.66557 5.0997L8.37268 4.3926ZM9.57361 5.22512C9.54829 5.22517 9.46306 5.21427 9.23964 5.06504C9.02033 4.91856 8.74306 4.69243 8.33574 4.35917L7.70251 5.13313C8.09345 5.45299 8.41487 5.71671 8.68422 5.89661C8.94945 6.07376 9.24283 6.22578 9.5756 6.22512L9.57361 5.22512ZM9.92546 5.07938C9.83199 5.17248 9.70552 5.22486 9.57361 5.22512L9.5756 6.22512C9.97135 6.22433 10.3508 6.06718 10.6312 5.78789L9.92546 5.07938ZM10.1884 3.59199C10.1361 4.11558 10.0999 4.47148 10.0484 4.73009C9.99596 4.99354 9.94341 5.06151 9.92546 5.07938L10.6312 5.78789C10.8669 5.55307 10.9669 5.23815 11.0292 4.92536C11.0924 4.60773 11.1332 4.19403 11.1835 3.69149L10.1884 3.59199ZM10.4745 2.35913C10.3615 2.53603 10.3067 2.72457 10.2712 2.91684C10.237 3.10246 10.2147 3.3296 10.1884 3.59199L11.1835 3.69149C11.2114 3.41254 11.2296 3.23368 11.2546 3.09831C11.2784 2.96958 11.3015 2.92213 11.3171 2.89771L10.4745 2.35913ZM11.0603 1.82901C10.8212 1.9502 10.6189 2.13326 10.4745 2.35913L11.3171 2.89771C11.3652 2.82241 11.4327 2.76139 11.5124 2.721L11.0603 1.82901ZM12.3155 1.66699C12.0518 1.66699 11.8236 1.66659 11.6355 1.68221C11.4406 1.69838 11.2476 1.7341 11.0603 1.82901L11.5124 2.721C11.5382 2.70789 11.5877 2.68961 11.7182 2.67878C11.8554 2.66739 12.0352 2.66699 12.3155 2.66699V1.66699ZM13.6845 1.66699H12.3155V2.66699H13.6845V1.66699ZM14.94 1.82909C14.7527 1.73414 14.5596 1.6984 14.3647 1.68221C14.1765 1.66659 13.9483 1.66699 13.6845 1.66699V2.66699C13.9649 2.66699 14.1447 2.66739 14.282 2.67879C14.4124 2.68962 14.462 2.70791 14.4878 2.72102L14.94 1.82909ZM15.5255 2.35899C15.3812 2.13323 15.179 1.95025 14.94 1.82909L14.4878 2.72102C14.5675 2.76141 14.6349 2.8224 14.683 2.89766L15.5255 2.35899ZM16.8334 13.0003C16.8334 15.1174 15.1172 16.8337 13.0001 16.8337V17.8337C15.6695 17.8337 17.8334 15.6697 17.8334 13.0003H16.8334ZM13.0001 9.16699C15.1172 9.16699 16.8334 10.8832 16.8334 13.0003H17.8334C17.8334 10.3309 15.6695 8.16699 13.0001 8.16699V9.16699ZM9.16675 13.0003C9.16675 10.8832 10.883 9.16699 13.0001 9.16699V8.16699C10.3307 8.16699 8.16675 10.3309 8.16675 13.0003H9.16675ZM13.0001 16.8337C10.883 16.8337 9.16675 15.1174 9.16675 13.0003H8.16675C8.16675 15.6697 10.3307 17.8337 13.0001 17.8337V16.8337Z" fill="#848484"/>
</svg>