<svg width="62" height="62" viewBox="0 0 62 62" fill="none" xmlns="http://www.w3.org/2000/svg">
<path id="Star 1" d="M17.6074 2.85135L28.4167 10.3566L28.7585 10.594L29.054 10.3009L38.3958 1.03259L41.852 13.7301L41.9613 14.1316L42.376 14.097L55.4898 13.0019L49.9756 24.9503L49.8012 25.3282L50.1411 25.5682L60.8908 33.1587L48.9864 38.7672L48.6099 38.9446L48.716 39.3471L52.0716 52.0715L39.3473 48.7158L38.9448 48.6097L38.7674 48.9862L33.1589 60.8906L25.5684 50.141L25.3284 49.801L24.9505 49.9754L13.0021 55.4896L14.0972 42.3758L14.1318 41.9611L13.7302 41.8518L1.03279 38.3956L10.301 29.0538L10.5942 28.7584L10.3568 28.4165L2.85154 17.6072L15.9563 16.4084L16.3707 16.3705L16.4086 15.9561L17.6074 2.85135Z" fill="#262F66" stroke="white"/>
</svg>
