<svg width="51" height="45" viewBox="0 0 51 45" fill="none" xmlns="http://www.w3.org/2000/svg">
<g id="Chat_alt_2_light">
<path id="Union" d="M41.0675 10.8332C42.5 12.7249 42.5 15.3583 42.5 20.625C42.5 25.8917 42.5 28.5251 41.0675 30.4168C40.4473 31.2357 39.6505 31.9388 38.7223 32.486C36.8495 33.5902 34.3351 33.7298 29.75 33.7474V33.75L27.4007 37.8959C26.6175 39.2779 24.3825 39.2779 23.5993 37.8959L21.25 33.75V33.7474C16.6649 33.7298 14.1505 33.5902 12.2777 32.486C11.3495 31.9388 10.5527 31.2357 9.93251 30.4168C8.5 28.5251 8.5 25.8917 8.5 20.625C8.5 15.3583 8.5 12.7249 9.93251 10.8332C10.5527 10.0143 11.3495 9.31117 12.2777 8.76398C14.4216 7.5 17.406 7.5 23.375 7.5H27.625C33.594 7.5 36.5784 7.5 38.7223 8.76398C39.6505 9.31117 40.4473 10.0143 41.0675 10.8332Z" stroke="#262F66" stroke-linecap="round" stroke-linejoin="round"/>
<path id="Vector 7" d="M19.125 16.875L31.875 16.875" stroke="#262F66" stroke-linecap="round" stroke-linejoin="round"/>
<path id="Vector 8" d="M19.125 24.375H25.5" stroke="#262F66" stroke-linecap="round" stroke-linejoin="round"/>
</g>
</svg>
