<svg width="70" height="70" viewBox="0 0 70 70" fill="none" xmlns="http://www.w3.org/2000/svg">
<path fill-rule="evenodd" clip-rule="evenodd" d="M34.875 0C15.6141 0 0 15.6141 0 34.875C0 54.1359 15.6141 69.75 34.875 69.75C54.1359 69.75 69.75 54.1359 69.75 34.875C69.75 15.6141 54.1359 0 34.875 0ZM34.875 46.5C32.7349 46.5 31 48.2349 31 50.375C31 52.5151 32.7349 54.25 34.875 54.25C37.0151 54.25 38.75 52.5151 38.75 50.375C38.75 48.2349 37.0151 46.5 34.875 46.5Z" fill="#C5C8DA"/>
<path d="M31.1805 20.1661C31.0833 19.0001 32.0035 18 33.1736 18H36.8264C37.9965 18 38.9167 19.0001 38.8195 20.1661L37.1528 40.1661C37.0664 41.2027 36.1999 42 35.1597 42H34.8403C33.8001 42 32.9336 41.2027 32.8472 40.1661L31.1805 20.1661Z" fill="white"/>
</svg>
