<svg width="37" height="33" viewBox="0 0 37 33" fill="none" xmlns="http://www.w3.org/2000/svg">
<path d="M4.30062 18.4009L17.8083 31.3376C18.1356 31.651 18.2992 31.8077 18.5 31.8077C18.7008 31.8077 18.8644 31.651 19.1917 31.3376L32.6994 18.4009L32.6994 18.4009C33.1673 17.9528 33.4013 17.7287 33.5922 17.5215C36.405 14.468 36.7642 9.88663 34.4616 6.43208C34.3053 6.19762 34.1091 5.93983 33.7167 5.42425L33.0435 4.53965L33.02 4.50876C29.3776 -0.259027 21.9777 0.530849 19.4238 5.96003L19.4073 5.9952L19.4048 6.00057C19.0445 6.76612 17.9555 6.76612 17.5952 6.00057L17.5927 5.9952L17.5762 5.96003C15.0223 0.530849 7.62236 -0.259027 3.97999 4.50876L3.95646 4.53965L3.28327 5.42425C2.89091 5.93983 2.69473 6.19762 2.53845 6.43208C0.235845 9.88663 0.595017 14.468 3.40784 17.5215C3.59874 17.7287 3.83268 17.9528 4.30055 18.4009L4.30062 18.4009Z" stroke="#262F66"/>
<circle cx="28.625" cy="25.625" r="5.625" fill="white" stroke="#262F66"/>
<path d="M28.875 27.75L28.875 24" stroke="#262F66" stroke-width="0.5" stroke-linecap="round"/>
<path d="M30.75 25.875L27 25.875" stroke="#262F66" stroke-width="0.5" stroke-linecap="round"/>
</svg>
