<svg width="30" height="30" viewBox="0 0 30 30" fill="none" xmlns="http://www.w3.org/2000/svg">
<mask id="path-1-inside-1_1085_8059" fill="white">
<path fill-rule="evenodd" clip-rule="evenodd" d="M0 5.55563C0 7.37062 0.839267 8.98234 2.1373 9.99618C1.44867 11.7074 1.06836 13.5853 1.06836 15.5554C1.06836 23.5329 7.30449 30 14.9971 30C22.6898 30 28.9259 23.5329 28.9259 15.5554C28.9259 13.5865 28.5461 11.7097 27.8582 9.99931C29.1586 8.98566 29.9996 7.3725 29.9996 5.55563C29.9996 2.48734 27.6011 0 24.6423 0C22.8909 0 21.3357 0.871634 20.3582 2.21944C18.708 1.50519 16.897 1.11073 14.9971 1.11073C13.0988 1.11073 11.2892 1.50455 9.64009 2.2177C8.66252 0.870885 7.10794 0 5.35722 0C2.39851 0 0 2.48734 0 5.55563Z"/>
</mask>
<path fill-rule="evenodd" clip-rule="evenodd" d="M0 5.55563C0 7.37062 0.839267 8.98234 2.1373 9.99618C1.44867 11.7074 1.06836 13.5853 1.06836 15.5554C1.06836 23.5329 7.30449 30 14.9971 30C22.6898 30 28.9259 23.5329 28.9259 15.5554C28.9259 13.5865 28.5461 11.7097 27.8582 9.99931C29.1586 8.98566 29.9996 7.3725 29.9996 5.55563C29.9996 2.48734 27.6011 0 24.6423 0C22.8909 0 21.3357 0.871634 20.3582 2.21944C18.708 1.50519 16.897 1.11073 14.9971 1.11073C13.0988 1.11073 11.2892 1.50455 9.64009 2.2177C8.66252 0.870885 7.10794 0 5.35722 0C2.39851 0 0 2.48734 0 5.55563Z" fill="#ACC0E2"/>
<path d="M2.1373 9.99618L3.065 10.3695L3.34596 9.67134L2.75285 9.20808L2.1373 9.99618ZM27.8582 9.99931L27.2434 9.21063L26.6495 9.67367L26.9305 10.3724L27.8582 9.99931ZM20.3582 2.21944L19.961 3.13716L20.6969 3.45569L21.1677 2.80654L20.3582 2.21944ZM9.64009 2.2177L8.83081 2.80511L9.30152 3.45361L10.037 3.13555L9.64009 2.2177ZM2.75285 9.20808C1.69368 8.38081 1 7.05799 1 5.55563H-1C-1 7.68326 -0.0151426 9.58387 1.52175 10.7843L2.75285 9.20808ZM2.06836 15.5554C2.06836 13.7148 2.42353 11.9635 3.065 10.3695L1.2096 9.62285C0.473799 11.4512 0.0683594 13.4558 0.0683594 15.5554H2.06836ZM14.9971 29C7.89074 29 2.06836 23.0152 2.06836 15.5554H0.0683594C0.0683594 24.0506 6.71824 31 14.9971 31V29ZM27.9259 15.5554C27.9259 23.0152 22.1035 29 14.9971 29V31C23.276 31 29.9259 24.0506 29.9259 15.5554H27.9259ZM26.9305 10.3724C27.5712 11.9656 27.9259 13.7159 27.9259 15.5554H29.9259C29.9259 13.4571 29.521 11.4537 28.786 9.62619L26.9305 10.3724ZM28.9996 5.55563C28.9996 7.05954 28.3045 8.38353 27.2434 9.21063L28.4731 10.788C30.0127 9.58779 30.9996 7.68545 30.9996 5.55563H28.9996ZM24.6423 1C27.0148 1 28.9996 3.00504 28.9996 5.55563H30.9996C30.9996 1.96964 28.1873 -1 24.6423 -1V1ZM21.1677 2.80654C21.9707 1.69942 23.2337 1 24.6423 1V-1C22.5481 -1 20.7008 0.0438483 19.5487 1.63233L21.1677 2.80654ZM14.9971 2.11073C16.7572 2.11073 18.4333 2.4759 19.961 3.13716L20.7554 1.30171C18.9828 0.534467 17.0368 0.110728 14.9971 0.110728V2.11073ZM10.037 3.13555C11.5638 2.47531 13.2385 2.11073 14.9971 2.11073V0.110728C12.9591 0.110728 11.0146 0.53378 9.24317 1.29985L10.037 3.13555ZM5.35722 1C6.76528 1 8.02781 1.69882 8.83081 2.80511L10.4494 1.63028C9.29722 0.0429507 7.4506 -1 5.35722 -1V1ZM1 5.55563C1 3.00504 2.98476 1 5.35722 1V-1C1.81226 -1 -1 1.96964 -1 5.55563H1Z" fill="#ACC0E2" mask="url(#path-1-inside-1_1085_8059)"/>
<rect x="10.1426" y="11.6113" width="1.14289" height="3.4445" rx="0.571445" fill="white" stroke="white"/>
<rect x="19.7852" y="11.6113" width="1.14289" height="3.4445" rx="0.571445" fill="white" stroke="white"/>
<path d="M10.7129 18.8896V18.8896C12.7495 22.3217 17.6244 22.5721 20.0019 19.3668L20.3559 18.8896" stroke="white"/>
</svg>
