<svg width="28" height="28" viewBox="0 0 28 28" fill="none" xmlns="http://www.w3.org/2000/svg">
<path fill-rule="evenodd" clip-rule="evenodd" d="M4.08333 18.0834L6.32232 15.8445C8.21513 13.9516 9.16154 13.0052 10.2036 13.2059C11.2456 13.4066 11.7729 14.6368 12.8273 17.0972L12.8956 17.2566C13.367 18.3565 13.6027 18.9064 14.0517 19.0403C14.1152 19.0592 14.1806 19.0718 14.2466 19.0778C14.7132 19.1203 15.1362 18.6972 15.9824 17.8511L15.9824 17.8511L15.9824 17.8511L16.1144 17.7191C17.1814 16.6521 17.7149 16.1186 18.3612 16.0187C18.5636 15.9874 18.7697 15.9874 18.9722 16.0187C19.6185 16.1186 20.152 16.6521 21.219 17.7191L22.0959 18.596C22.1606 18.6607 22.193 18.6931 22.2249 18.7236C22.8377 19.31 23.618 19.6836 24.4509 19.7969C24.3586 21.4951 24.0929 22.5637 23.3284 23.3282C22.1569 24.4998 20.2712 24.4998 16.5 24.4998H11.5C7.72876 24.4998 5.84315 24.4998 4.67157 23.3282C3.5 22.1566 3.5 20.271 3.5 16.4998V11.4998C3.5 8.51072 3.5 6.70622 4.08333 5.50293V18.0834Z" fill="#ACC0E2"/>
<path d="M14 3.5H11.5C7.72876 3.5 5.84315 3.5 4.67157 4.67157C3.5 5.84315 3.5 7.72876 3.5 11.5V16.5C3.5 20.2712 3.5 22.1569 4.67157 23.3284C5.84315 24.5 7.72876 24.5 11.5 24.5H16.5C20.2712 24.5 22.1569 24.5 23.3284 23.3284C24.5 22.1569 24.5 20.2712 24.5 16.5V14" stroke="#ACC0E2" stroke-width="2"/>
<path d="M24.5 3.5V2.5H25.5V3.5H24.5ZM19.2914 8.94754C18.8601 9.29255 18.2308 9.22262 17.8858 8.79136C17.5408 8.3601 17.6107 7.73081 18.042 7.3858L19.2914 8.94754ZM23.5 9.33333V3.5H25.5V9.33333H23.5ZM24.5 4.5H18.6667V2.5H24.5V4.5ZM25.1247 4.28087L19.2914 8.94754L18.042 7.3858L23.8753 2.71913L25.1247 4.28087Z" fill="#ACC0E2"/>
</svg>
