<svg width="16" height="16" viewBox="0 0 16 16" fill="none" xmlns="http://www.w3.org/2000/svg">
<path d="M14.124 3.1975C13.9854 3.20163 13.8539 3.25953 13.7573 3.35896L5.60105 11.5152L2.2448 8.15896C2.19566 8.10777 2.1368 8.0669 2.07166 8.03875C2.00653 8.0106 1.93643 7.99573 1.86547 7.99501C1.79452 7.99428 1.72413 8.00773 1.65844 8.03455C1.59274 8.06137 1.53306 8.10103 1.48289 8.1512C1.43271 8.20138 1.39305 8.26106 1.36623 8.32676C1.33941 8.39245 1.32597 8.46284 1.32669 8.53379C1.32741 8.60475 1.34228 8.67484 1.37043 8.73998C1.39859 8.80511 1.43945 8.86398 1.49064 8.91312L5.22397 12.6465C5.32399 12.7464 5.45963 12.8026 5.60105 12.8026C5.74248 12.8026 5.87811 12.7464 5.97814 12.6465L14.5115 4.11312C14.5885 4.03821 14.6412 3.94176 14.6625 3.83642C14.6838 3.73107 14.6728 3.62175 14.6309 3.52277C14.589 3.42379 14.5182 3.33977 14.4277 3.28173C14.3373 3.22369 14.2314 3.19433 14.124 3.1975Z" fill="#2F1073"/>
</svg>
