<svg xmlns="http://www.w3.org/2000/svg" width="28" height="28" viewBox="0 0 28 28" fill="none">
  <path d="M7.52248 10.4646C7.88922 7.16403 10.6791 4.66699 14 4.66699V4.66699C17.3209 4.66699 20.1108 7.16403 20.4775 10.4646L20.7713 13.1086C20.807 13.43 20.8249 13.5907 20.8489 13.749C20.9892 14.6734 21.2906 15.5661 21.7392 16.3865C21.816 16.5269 21.8992 16.6656 22.0656 16.9429L22.7399 18.0669C23.4925 19.3211 23.8687 19.9482 23.6349 20.434C23.6156 20.474 23.5937 20.5127 23.5693 20.5499C23.273 21.0003 22.5417 21.0003 21.0791 21.0003H6.92094C5.45832 21.0003 4.72701 21.0003 4.43071 20.5499C4.4063 20.5127 4.38439 20.474 4.36513 20.434C4.13129 19.9482 4.50755 19.3211 5.26006 18.0669L5.93443 16.9429C6.10083 16.6656 6.18404 16.5269 6.26083 16.3865C6.70945 15.5661 7.01077 14.6734 7.15111 13.749C7.17514 13.5907 7.193 13.43 7.22871 13.1086L7.52248 10.4646Z" stroke="#222222"/>
  <path d="M10.6193 21.4735C10.8187 22.3418 11.2581 23.109 11.8693 23.6562C12.4806 24.2034 13.2295 24.5 14 24.5C14.7705 24.5 15.5194 24.2034 16.1307 23.6562C16.7419 23.109 17.1813 22.3418 17.3807 21.4735" stroke="#222222" stroke-linecap="round"/>
</svg>