<svg xmlns="http://www.w3.org/2000/svg" width="28" height="28" viewBox="0 0 28 28" fill="none">
  <path d="M14.773 4.28914L22.0077 6.21838C22.4454 6.33512 22.75 6.73157 22.75 7.18462V14.8719C22.75 16.878 21.7474 18.7514 20.0782 19.8642L14.5547 23.5465C14.2188 23.7705 13.7812 23.7705 13.4453 23.5465L7.9218 19.8642C6.25261 18.7514 5.25 16.878 5.25 14.8719V7.18462C5.25 6.73157 5.55458 6.33512 5.99234 6.21838L13.227 4.28914C13.7335 4.15408 14.2665 4.15408 14.773 4.28914Z" stroke="#222222" stroke-linecap="round"/>
  <path d="M11.0833 13.417L13.2399 15.5735C13.3375 15.6712 13.4958 15.6712 13.5934 15.5735L17.5 11.667" stroke="#222222" stroke-linecap="round"/>
</svg>