<svg xmlns="http://www.w3.org/2000/svg" width="28" height="28" viewBox="0 0 28 28" fill="none">
  <path d="M4.08325 17.5V7.65C4.08325 6.80992 4.08325 6.38988 4.24674 6.06901C4.39055 5.78677 4.62002 5.5573 4.90227 5.41349C5.22313 5.25 5.64317 5.25 6.48325 5.25H10.0556C10.4313 5.25 10.6192 5.25 10.7897 5.30179C10.9407 5.34763 11.0811 5.4228 11.203 5.52298C11.3406 5.63614 11.4448 5.79245 11.6532 6.10507L12.8466 7.89539C13.055 8.20802 13.1592 8.36433 13.2969 8.47749C13.4187 8.57767 13.5592 8.65283 13.7101 8.69868C13.8806 8.75047 14.0685 8.75047 14.4442 8.75047H19.2504C20.0272 8.75047 20.4156 8.75047 20.7168 8.89085C21.0367 9.03992 21.2938 9.29699 21.4429 9.61687C21.5833 9.91812 21.5833 10.3065 21.5833 11.0833V11.0833M12.2499 15.75H19.2499" stroke="#222222" stroke-linecap="round"/>
  <path d="M5.24992 21.583L19.8534 21.5834C20.4754 21.5834 20.7865 21.5835 21.0511 21.4794C21.2848 21.3875 21.4917 21.2384 21.6528 21.0457C21.8352 20.8276 21.9336 20.5325 22.1303 19.9424L24.0303 14.2423C24.3858 13.1758 24.5636 12.6426 24.457 12.2181C24.3637 11.8466 24.1318 11.5248 23.8088 11.3188C23.4398 11.0834 22.8777 11.0834 21.7535 11.0834L11.6465 11.0831C11.0244 11.083 10.7134 11.083 10.4487 11.1871C10.215 11.279 10.0082 11.4281 9.84706 11.6208C9.66462 11.8389 9.56627 12.134 9.36956 12.7241L6.72564 20.6563C6.54108 21.21 6.0229 21.5835 5.43923 21.5835V21.5835C4.69035 21.5835 4.08325 20.9764 4.08325 20.2275V16.9163" stroke="#222222"/>
</svg>