<svg xmlns="http://www.w3.org/2000/svg" width="20" height="20" viewBox="0 0 20 20" fill="none">
  <g clip-path="url(#clip0_245_1895)">
    <path d="M9.66135 19.271H4.44488C3.02722 19.271 1.87697 18.1165 1.87697 16.7031V4.13091C1.87697 2.71326 3.03147 1.563 4.44488 1.563H9.74624C10.0646 1.563 10.3192 1.30833 10.3192 0.989997C10.3192 0.671661 10.0646 0.416992 9.74624 0.416992H4.44488C2.39479 0.416992 0.730957 2.08507 0.730957 4.13091V16.7031C0.730957 18.7532 2.39904 20.417 4.44488 20.417H9.66135C9.97968 20.417 10.2344 20.1623 10.2344 19.844C10.2344 19.5257 9.97544 19.271 9.66135 19.271Z" fill="black"/>
    <path d="M19.101 10.0136L15.4593 6.37184C15.2343 6.14689 14.8735 6.14689 14.6486 6.37184C14.4236 6.5968 14.4236 6.95758 14.6486 7.18254L17.3141 9.84807H5.68848C5.37015 9.84807 5.11548 10.1027 5.11548 10.4211C5.11548 10.7394 5.37015 10.9941 5.68848 10.9941H17.3141L14.6486 13.6596C14.4236 13.8846 14.4236 14.2454 14.6486 14.4703C14.7589 14.5807 14.9075 14.6401 15.0518 14.6401C15.1961 14.6401 15.3447 14.5849 15.455 14.4703L19.0968 10.8285C19.326 10.5993 19.326 10.2343 19.101 10.0136Z" fill="black"/>
  </g>
  <defs>
    <clipPath id="clip0_245_1895">
      <rect width="20" height="20" fill="white"/>
    </clipPath>
  </defs>
</svg>