<svg xmlns="http://www.w3.org/2000/svg" width="28" height="28" viewBox="0 0 28 28" fill="none">
  <path d="M24.0757 5.05566H3.92416C3.50257 5.05679 3.09857 5.22617 2.80046 5.52676C2.50234 5.82736 2.33437 6.23473 2.33325 6.65983V20.5626C2.33325 20.9881 2.50087 21.3961 2.79922 21.6969C3.09757 21.9978 3.50223 22.1668 3.92416 22.1668H24.0757C24.4976 22.1668 24.9023 21.9978 25.2006 21.6969C25.499 21.3961 25.6666 20.9881 25.6666 20.5626V6.65983C25.6655 6.23473 25.4975 5.82736 25.1994 5.52676C24.9013 5.22617 24.4973 5.05679 24.0757 5.05566ZM13.9999 13.6861L4.26356 6.12511H23.7363L13.9999 13.6861ZM10.9814 12.6915L3.39386 20.3402V6.79993L10.9814 12.6915ZM11.8278 13.3492L13.9999 15.0336L16.172 13.3481L23.8561 21.0973H4.14371L11.8278 13.3492ZM17.0184 12.6904L24.606 6.79993V20.3412L17.0184 12.6904Z" fill="black"/>
</svg>