<svg xmlns="http://www.w3.org/2000/svg" width="28" height="28" viewBox="0 0 28 28" fill="none">
  <path d="M8.16672 12.8329V10.694C8.16672 7.15018 10.7784 4.27734 14.0001 4.27734C17.2217 4.27734 19.8334 7.15018 19.8334 10.694V12.8329M4.27783 19.0551C4.27783 16.3053 4.27783 14.9304 5.1321 14.0761C5.98638 13.2218 7.3613 13.2218 10.1112 13.2218H17.8889C20.6388 13.2218 22.0137 13.2218 22.868 14.0761C23.7223 14.9304 23.7223 16.3053 23.7223 19.0551C23.7223 21.805 23.7223 23.1799 22.868 24.0342C22.0137 24.8885 20.6388 24.8885 17.8889 24.8885H10.1112C7.3613 24.8885 5.98638 24.8885 5.1321 24.0342C4.27783 23.1799 4.27783 21.805 4.27783 19.0551Z" stroke="black" stroke-width="0.833333" stroke-linecap="round"/>
</svg>