<svg xmlns="http://www.w3.org/2000/svg" width="28" height="28" viewBox="0 0 28 28" fill="none">
  <path d="M13.5516 3.24132C13.735 2.86974 14.2649 2.86974 14.4483 3.24132L17.4887 9.40089C17.5615 9.54831 17.7021 9.65054 17.8647 9.67432L24.6647 10.6682C25.0747 10.7282 25.238 11.2321 24.9412 11.5212L20.0216 16.3128C19.9037 16.4277 19.8499 16.5933 19.8777 16.7555L21.0386 23.5243C21.1087 23.9328 20.6799 24.2443 20.3131 24.0514L14.2326 20.8537C14.087 20.7771 13.9129 20.7771 13.7672 20.8537L7.68674 24.0514C7.31992 24.2443 6.89115 23.9328 6.96121 23.5243L8.12213 16.7555C8.14996 16.5933 8.09613 16.4277 7.97819 16.3128L3.05859 11.5212C2.7618 11.2321 2.92519 10.7282 3.33514 10.6682L10.1351 9.67432C10.2978 9.65054 10.4384 9.54831 10.5111 9.40089L13.5516 3.24132Z" stroke="black" stroke-linecap="round" stroke-linejoin="round"/>
</svg>