<svg width="25" height="25" viewBox="0 0 25 25" fill="none" xmlns="http://www.w3.org/2000/svg">
<path d="M3.125 11.4584V11.4584C3.125 12.5078 3.125 13.0325 3.31702 13.4385C3.51486 13.8568 3.8516 14.1935 4.26989 14.3914C4.67588 14.5834 5.20059 14.5834 6.25 14.5834H6.95359C7.58859 14.5834 7.90609 14.5834 8.15305 14.742C8.18308 14.7613 8.21205 14.7822 8.23985 14.8046C8.46844 14.9887 8.56884 15.2899 8.76965 15.8923L8.91915 16.3408C9.13916 17.0008 9.24916 17.3309 9.51105 17.5196C9.77294 17.7084 10.1208 17.7084 10.8165 17.7084H14.1835C14.8792 17.7084 15.2271 17.7084 15.489 17.5196C15.7508 17.3309 15.8608 17.0008 16.0808 16.3408L16.2304 15.8923C16.4312 15.2899 16.5316 14.9887 16.7602 14.8046C16.7879 14.7822 16.8169 14.7613 16.847 14.742C17.0939 14.5834 17.4114 14.5834 18.0464 14.5834H18.75C19.7994 14.5834 20.3241 14.5834 20.7301 14.3914C21.1484 14.1935 21.4851 13.8568 21.683 13.4385C21.875 13.0325 21.875 12.5078 21.875 11.4584V11.4584" stroke="#222222"/>
<path d="M8.33301 9.375L12.4997 12.5M12.4997 12.5L16.6663 9.375M12.4997 12.5L12.4997 2.08333" stroke="#222222"/>
<path d="M16.6667 5.20837H17.875C19.7606 5.20837 20.7034 5.20837 21.2892 5.79416C21.875 6.37995 21.875 7.32276 21.875 9.20837V17.875C21.875 19.7607 21.875 20.7035 21.2892 21.2893C20.7034 21.875 19.7606 21.875 17.875 21.875H7.125C5.23938 21.875 4.29657 21.875 3.71079 21.2893C3.125 20.7035 3.125 19.7607 3.125 17.875V9.20837C3.125 7.32276 3.125 6.37995 3.71079 5.79416C4.29657 5.20837 5.23938 5.20837 7.125 5.20837H8.33333" stroke="#222222"/>
</svg>
